<?xml version="1.0" encoding="UTF-8"?>
<svg width="18px" height="14px" viewBox="0 0 18 14" version="1.1" xmlns="http://www.w3.org/2000/svg" xmlns:xlink="http://www.w3.org/1999/xlink">
    <!-- Generator: Sketch 61.2 (89653) - https://sketch.com -->
    <title>icon_fill</title>
    <desc>Created with Sketch.</desc>
    <g id="TeacherWeb" stroke="none" stroke-width="1" fill="none" fill-rule="evenodd">
        <g id="作业_布置作业_更换题目_自定义更换_单选题" transform="translate(-606.000000, -682.000000)">
            <g id="icon_fill" transform="translate(615.000000, 689.000000) scale(-1, 1) translate(-615.000000, -689.000000) translate(605.000000, 681.000000)">
                <rect id="矩形" x="0" y="0" width="20" height="16"></rect>
                <path d="M17.5,15 L14.5,15 L14.5,13.6 L17.5,13.6 L17.5,2.4 L14.5,2.4 L14.5,1 L17.5,1 C18.3284271,1 19,1.62680135 19,2.4 L19,13.6 C19,14.3731986 18.3284271,15 17.5,15 Z M15.25,4.5 C15.25,4.88659932 14.9142136,5.2 14.5,5.2 L5.5,5.2 C5.08578644,5.2 4.75,4.88659932 4.75,4.5 C4.75,4.11340068 5.08578644,3.8 5.5,3.8 L14.5,3.8 C14.9142136,3.8 15.25,4.11340068 15.25,4.5 L15.25,4.5 Z M2.5,13.6 L5.5,13.6 L5.5,15 L2.5,15 C1.67157288,15 1,14.3731986 1,13.6 L1,2.4 C1,1.62680135 1.67157288,1 2.5,1 L5.5,1 L5.5,2.4 L2.5,2.4 L2.5,13.6 Z M14.5,8.7 L5.5,8.7 C5.08578645,8.7 4.75000003,8.38659931 4.75000003,8 C4.75000003,7.61340069 5.08578645,7.3 5.5,7.3 L14.5,7.3 C14.9142136,7.3 15.25,7.61340068 15.25,8 C15.25,8.38659932 14.9142136,8.7 14.5,8.7 L14.5,8.7 Z M14.5,12.2 L5.5,12.2 C5.08578645,12.2 4.75000003,11.8865993 4.75000003,11.5 C4.75000003,11.1134007 5.08578645,10.8 5.5,10.8 L14.5,10.8 C14.9142136,10.8 15.25,11.1134007 15.25,11.5 C15.25,11.8865993 14.9142136,12.2 14.5,12.2 Z" id="形状" fill="#484848" fill-rule="nonzero"></path>
            </g>
        </g>
    </g>
</svg>