<?xml version="1.0" encoding="UTF-8"?>
<svg width="16px" height="16px" viewBox="0 0 16 16" version="1.1" xmlns="http://www.w3.org/2000/svg" xmlns:xlink="http://www.w3.org/1999/xlink">
    <!-- Generator: Sketch 60 (88103) - https://sketch.com -->
    <title>Nav/Paper/Default</title>
    <desc>Created with Sketch.</desc>
    <g id="Slice" stroke="none" stroke-width="1" fill="none" fill-rule="evenodd" opacity="0.65">
        <g id="Nav/Paper/Default" fill="#000000" fill-rule="nonzero">
            <g id="Shape">
                <path d="M3.15639274,15.8250906 L1.10363822,15.8250906 C0.485597676,15.8250906 0,15.1437386 0,14.3085182 L0,1.51657242 C0,0.681367683 0.485597676,0 1.10363822,0 L3.15639274,0 C3.77443328,0 4.27327524,0.681352057 4.27327524,1.51657242 L4.27327524,14.3085182 C4.27327524,15.1437229 3.77441759,15.8250906 3.15639274,15.8250906 Z M1.10363822,0.879176042 C0.900580082,0.879176042 0.732829584,1.11215832 0.732829584,1.39348715 L0.732829584,14.4316035 C0.732829584,14.7173388 0.900580082,14.9459302 1.10363822,14.9459302 L3.15639274,14.9459302 C3.35945088,14.9459302 3.52720137,14.7129479 3.52720137,14.4316035 L3.52720137,1.39348715 C3.5316266,1.11215832 3.3638761,0.879176042 3.15639274,0.879176042 L1.10363822,0.879176042 Z M0.441470979,3.51668854 L3.99514523,3.51668854 L3.99514523,4.3079376 L0.441470979,4.3079376 L0.441470979,3.51668854 Z M4.85599246,3.51668854 L8.4096824,3.51668854 L8.4096824,4.3079376 L4.85599246,4.3079376 L4.85599246,3.51668854 Z M7.81814613,15.8250906 L5.76096638,15.8250906 C5.14735106,15.8250906 4.64409957,15.1437386 4.64409957,14.3085182 L4.64409957,1.51657242 C4.64409957,0.681367683 5.14294153,0 5.76096638,0 L7.81814613,0 C8.43176144,0 8.93501294,0.681352057 8.93501294,1.51657242 L8.93501294,14.3085182 C8.93501294,15.1437229 8.43176144,15.8250906 7.81814613,15.8250906 Z M5.76096638,0.879176042 C5.55790824,0.879176042 5.39015775,1.11215832 5.39015775,1.39348715 L5.39015775,14.4316035 C5.39015775,14.7173388 5.55790824,14.9459302 5.76096638,14.9459302 L7.81814613,14.9459302 C8.02120426,14.9459302 8.18895476,14.7129479 8.18895476,14.4316035 L8.18895476,1.39348715 C8.18895476,1.10775181 8.02120426,0.879176042 7.81814613,0.879176042 L5.76096638,0.879176042 Z M9.35970887,4.25035613 L12.901049,3.52503278 L13.0599647,4.29564001 L9.51907969,5.02094775 L9.35970887,4.25035613 Z M15.2301446,15.4294739 L13.2126977,15.9701615 C12.6079172,16.1328116 11.941309,15.614094 11.7250066,14.8140475 L8.38761905,2.56718029 C8.17130094,1.76713384 8.48473859,0.984666541 9.08953484,0.808843833 L11.1290451,0.281328833 C11.7338256,0.118694391 12.4004338,0.63739638 12.6167362,1.43744283 L15.9320447,13.6843101 C16.1483628,14.5063422 15.8305156,15.2668238 15.2301289,15.4294739 L15.2301446,15.4294739 Z M9.33675106,1.6660186 L9.33675107,1.66601859 C9.1120627,1.76026516 9.00664351,2.01804215 9.10128995,2.24178014 C9.10317719,2.24624146 9.10513834,2.25067144 9.10717254,2.25506826 L12.4843086,14.7349178 C12.5593491,15.0074649 12.7800768,15.1745058 12.9831349,15.1305501 L15.0094165,14.5898625 L15.0094165,14.5898625 C15.2340986,14.4956016 15.3395006,14.2378171 15.24484,14.0140853 C15.2429546,14.0096291 15.2409954,14.0052042 15.2389634,14.0008124 L11.8530239,1.51657195 C11.7779677,1.24402487 11.5572558,1.07698393 11.3541663,1.1209396 L9.33675106,1.6660186 Z"></path>
            </g>
        </g>
    </g>
</svg>