<?xml version="1.0" encoding="UTF-8"?>
<svg width="16px" height="16px" viewBox="0 0 16 16" version="1.1" xmlns="http://www.w3.org/2000/svg" xmlns:xlink="http://www.w3.org/1999/xlink">
    <!-- Generator: Sketch 60 (88103) - https://sketch.com -->
    <title>Nav/Homework/Default</title>
    <desc>Created with Sketch.</desc>
    <g id="Slice" stroke="none" stroke-width="1" fill="none" fill-rule="evenodd" opacity="0.65">
        <g id="Nav/Homework/Default" fill="#000000" fill-rule="nonzero">
            <g id="作业中心">
                <rect id="Rectangle" opacity="0" x="0" y="0" width="16" height="16"></rect>
                <path d="M11.7647059,1.50588236 L11.7647059,2.44705883 L14.0235294,2.44705883 C14.2983529,2.44705883 14.5882353,2.7877647 14.5882353,3.27717647 L14.5882353,13.2988235 C14.5882353,13.7882353 14.2983529,14.1298824 14.0235294,14.1298824 L1.97647059,14.1298824 C1.70164706,14.1298824 1.41176472,13.7882353 1.4117647,13.2988235 L1.4117647,3.27717647 C1.4117647,2.7877647 1.70164706,2.44705883 1.97647059,2.44705883 L4.23529412,2.44705883 L4.23529412,1.50588236 L1.97647059,1.50588236 C1.14447059,1.50588236 0.470588234,2.29929412 0.470588234,3.27717647 L0.470588234,13.2988235 C0.470588234,14.2776471 1.14447059,15.0710588 1.97647059,15.0710588 L14.0235294,15.0710588 C14.8555294,15.0710588 15.5294118,14.2776471 15.5294118,13.2988235 L15.5294118,3.27717647 C15.5294118,2.29835294 14.8555294,1.50588236 14.0235294,1.50588236 L11.7647059,1.50588236 Z M11.7647059,1.50588236 L11.7647059,2.44705883 L14.0235294,2.44705883 C14.2983529,2.44705883 14.5882353,2.7877647 14.5882353,3.27717647 L14.5882353,13.2988235 C14.5882353,13.7882353 14.2983529,14.1298824 14.0235294,14.1298824 L1.97647059,14.1298824 C1.70164706,14.1298824 1.41176472,13.7882353 1.4117647,13.2988235 L1.4117647,3.27717647 C1.4117647,2.7877647 1.70164706,2.44705883 1.97647059,2.44705883 L4.23529412,2.44705883 L4.23529412,1.50588236 L1.97647059,1.50588236 C1.14447059,1.50588236 0.470588234,2.29929412 0.470588234,3.27717647 L0.470588234,13.2988235 C0.470588234,14.2776471 1.14447059,15.0710588 1.97647059,15.0710588 L14.0235294,15.0710588 C14.8555294,15.0710588 15.5294118,14.2776471 15.5294118,13.2988235 L15.5294118,3.27717647 C15.5294118,2.29835294 14.8555294,1.50588236 14.0235294,1.50588236 L11.7647059,1.50588236 Z" id="Shape"></path>
                <path d="M5.17647059,0.941176469 C4.65667318,0.941176469 4.23529413,1.36255553 4.23529413,1.88235294 C4.23529413,2.40215035 4.65667318,2.82352941 5.17647059,2.82352941 L10.8235294,2.82352941 C11.3433268,2.82352941 11.7647059,2.40215035 11.7647059,1.88235294 C11.7647059,1.36255553 11.3433268,0.941176469 10.8235294,0.941176469 L5.17647059,0.941176469 Z M5.17647059,0 L10.8235294,0 C11.8631242,0 12.7058823,0.842758116 12.7058823,1.88235294 C12.7058823,2.92194776 11.8631242,3.76470588 10.8235294,3.76470588 L5.17647059,3.76470588 C4.13687577,3.76470588 3.29411766,2.92194776 3.29411766,1.88235294 C3.29411766,0.842758116 4.13687577,0 5.17647059,0 Z M4.23529413,6.5882353 C3.97539542,6.5882353 3.76470589,6.37754577 3.76470589,6.11764706 C3.76470589,5.85774836 3.97539542,5.64705883 4.23529413,5.64705883 L11.7647059,5.64705883 C12.0246046,5.64705883 12.2352941,5.85774836 12.2352941,6.11764706 C12.2352941,6.37754577 12.0246046,6.5882353 11.7647059,6.5882353 L4.23529413,6.5882353 L4.23529413,6.5882353 Z M4.23529413,9.4117647 C3.97539542,9.4117647 3.76470589,9.20107517 3.76470589,8.94117647 C3.76470589,8.68127776 3.97539542,8.47058823 4.23529413,8.47058823 L11.7647059,8.47058823 C12.0246046,8.47058823 12.2352941,8.68127776 12.2352941,8.94117647 C12.2352941,9.20107517 12.0246046,9.4117647 11.7647059,9.4117647 L4.23529413,9.4117647 L4.23529413,9.4117647 Z M4.23529413,12.2352941 C3.97539542,12.2352941 3.76470588,12.0246046 3.76470588,11.7647059 C3.76470588,11.5048072 3.97539542,11.2941176 4.23529413,11.2941176 L11.7647059,11.2941176 C12.0246046,11.2941176 12.2352941,11.5048072 12.2352941,11.7647059 C12.2352941,12.0246046 12.0246046,12.2352941 11.7647059,12.2352941 L4.23529413,12.2352941 Z" id="Shape"></path>
            </g>
        </g>
    </g>
</svg>