<?xml version="1.0" encoding="UTF-8"?>
<svg width="16px" height="16px" viewBox="0 0 16 16" version="1.1" xmlns="http://www.w3.org/2000/svg" xmlns:xlink="http://www.w3.org/1999/xlink">
    <!-- Generator: Sketch 60 (88103) - https://sketch.com -->
    <title>Nav/Index/Selected</title>
    <desc>Created with Sketch.</desc>
    <g id="Slice" stroke="none" stroke-width="1" fill="none" fill-rule="evenodd">
        <g id="Nav/Index/Selected" fill="#0FB1B5" fill-rule="nonzero">
            <g id="Shape">
                <path d="M8.04237388,0.906666239 C8.13036931,0.906666239 8.21836474,0.938683496 8.28502755,0.994683442 L13.9967217,6.48801326 L13.9967217,14.7120052 C13.9967217,14.8133384 13.9567239,14.9093381 13.8847275,14.9813376 C13.8127312,15.0533376 13.7167368,15.0933377 13.615409,15.0933377 L10.6902225,15.0933377 L10.6902225,12.1280037 C10.6902225,11.6426712 10.5035657,11.1866706 10.1595842,10.8453371 C9.8182684,10.5040036 9.36229314,10.3146712 8.87698425,10.3146712 L7.11440213,10.3146712 C6.62909481,10.3146712 6.17578525,10.5040051 5.83180219,10.8453371 C5.49048639,11.1893365 5.30116391,11.645337 5.30116391,12.1280037 L5.30116391,15.0933377 L2.46664243,15.0933377 C2.36531444,15.0933377 2.26931972,15.0533378 2.19732396,14.9813376 C2.12532772,14.9093376 2.08532973,14.8133383 2.08532973,14.7120052 L2.08532973,6.41867021 L7.794366,0.999999482 C7.86369575,0.938666141 7.95169071,0.906666239 8.04235262,0.906666239 L8.04237388,0.906666239 Z M8.04235262,0 C7.73303616,0 7.42371813,0.111999892 7.18106446,0.3333329 L0.208095967,6.95199019 C-0.0505565807,7.19199063 -0.0718899906,7.5946572 0.165431492,7.85599059 C0.29342476,7.99732392 0.466749296,8.06932327 0.642740157,8.06932327 C0.794732221,8.06932327 0.94672366,8.01598994 1.0693849,7.90665714 L1.18137897,7.80265711 L1.18137897,14.7119923 C1.18137897,15.0533259 1.31737184,15.3813255 1.55735981,15.621326 C1.80001347,15.8639922 2.12533038,15.9973263 2.46664618,15.9973263 L6.21044465,15.9973263 L6.21044465,12.1279998 C6.21044465,11.8879994 6.30643968,11.6559996 6.47443016,11.4853328 C6.64508806,11.314666 6.87440854,11.2186662 7.1143965,11.2186662 L8.87697863,11.2186662 C9.11696659,11.2186662 9.34895433,11.3146662 9.51694497,11.4853328 C9.68760286,11.6559996 9.78359774,11.885332 9.78093047,12.1279998 L9.78093047,16 L13.6180675,16 C13.9593833,16 14.2873659,15.8640001 14.5273539,15.6239996 C14.7700075,15.3813333 14.9033347,15.0559995 14.9033347,14.7120001 L14.9033347,7.888003 C15.0393276,8.01066968 15.2046525,8.07200365 15.3646445,8.07200365 C15.5379681,8.07200365 15.708626,8 15.8339529,7.86133681 C15.9486136,7.7360035 16.0072765,7.56800398 15.9992779,7.39733721 C15.9912783,7.22667044 15.9139491,7.06667015 15.788622,6.95200473 L8.90631851,0.333347441 C8.66099759,0.109348283 8.35168112,0 8.0423631,0 L8.04235262,0 Z"></path>
            </g>
        </g>
    </g>
</svg>