<?xml version="1.0" encoding="UTF-8"?>
<svg width="16px" height="16px" viewBox="0 0 16 16" version="1.1" xmlns="http://www.w3.org/2000/svg" xmlns:xlink="http://www.w3.org/1999/xlink">
    <!-- Generator: Sketch 60 (88103) - https://sketch.com -->
    <title>Nav/Exercise/Default</title>
    <desc>Created with Sketch.</desc>
    <g id="Slice" stroke="none" stroke-width="1" fill="none" fill-rule="evenodd">
        <g id="Nav/Exercise/Default">
            <g id="Group-2">
                <rect id="Rectangle" x="0" y="0" width="16" height="16"></rect>
                <g id="Nav/Exercise/Default" transform="translate(1.250000, 0.200000)" fill="#000000" fill-rule="nonzero" opacity="0.65" stroke="#000000" stroke-width="0.2">
                    <path d="M13.4904471,3.43426883 L10.5829301,0.10566981 C10.5235563,0.0387455971 10.4389936,0 10.3472341,0 L1.02734667,0 C0.753867345,0 0.49478167,0.103908647 0.300467414,0.294114305 C0.106153158,0.484319964 0,0.736166345 0,1.00562436 L0,14.4943756 C0,15.0491421 0.460596755,15.5 1.02734667,15.5 L12.5350687,15.5 C13.1018186,15.5 13.5625,15.0491421 13.5625,14.4943756 L13.5625,3.63151915 C13.5642146,3.55931144 13.5372265,3.49062607 13.4904471,3.43426883 Z M12.8949099,3.68435405 L10.2392818,3.68435405 L10.2392818,0.644585843 L12.8949099,3.68435405 Z M12.5368679,14.8959209 L1.02914587,14.8959209 C0.804245115,14.8959209 0.620726096,14.7162822 0.620726096,14.4961368 L0.620726096,1.00738552 C0.620726096,0.899954551 0.663907041,0.799568231 0.741272902,0.7238382 C0.818638764,0.64810817 0.92119351,0.605840245 1.03094508,0.605840245 L9.62035488,0.605840245 L9.62035488,3.98727417 C9.62035488,4.15458471 9.75889375,4.2901943 9.92981832,4.2901943 L12.9452877,4.2901943 L12.9452877,14.4961368 C12.9452877,14.7162822 12.7617687,14.8959209 12.5368679,14.8959209 Z" id="Shape"></path>
                    <path d="M10.3444777,5.8125 L2.24927235,5.8125 C2.07707251,5.8125 1.9375,5.94300644 1.9375,6.10402087 C1.9375,6.2650353 2.07707251,6.39554174 2.24927235,6.39554174 L10.3444777,6.39554174 C10.5166775,6.39554174 10.65625,6.2650353 10.65625,6.10402087 C10.65625,5.94300644 10.5166775,5.8125 10.3444777,5.8125 Z M10.3444777,8.91245157 L2.24927235,8.91245157 C2.07707251,8.91245157 1.9375,9.04295801 1.9375,9.20397244 C1.9375,9.36498688 2.07707251,9.49549331 2.24927235,9.49549331 L10.3444777,9.49549331 C10.5166775,9.49549331 10.65625,9.36498688 10.65625,9.20397244 C10.65625,9.04295801 10.5166775,8.91245157 10.3444777,8.91245157 Z M10.3444777,12.0107083 L2.24927235,12.0107083 C2.07707251,12.0107083 1.9375,12.1412147 1.9375,12.3022291 C1.9375,12.4632436 2.07707251,12.59375 2.24927235,12.59375 L10.3444777,12.59375 C10.5166775,12.59375 10.65625,12.4632436 10.65625,12.3022291 C10.65625,12.1412147 10.5166775,12.0107083 10.3444777,12.0107083 Z" id="Shape"></path>
                </g>
            </g>
        </g>
    </g>
</svg>