<?xml version="1.0" encoding="UTF-8"?>
<svg width="272px" height="32px" viewBox="0 0 272 32" version="1.1" xmlns="http://www.w3.org/2000/svg" xmlns:xlink="http://www.w3.org/1999/xlink">
    <!-- Generator: Sketch 60 (88103) - https://sketch.com -->
    <title>Search</title>
    <desc>Created with Sketch.</desc>
    <defs>
        <path d="M12.6094564,11.947054 L9.93776693,9.27666341 C10.6534212,8.41294271 11.0833333,7.30504232 11.0833333,6.09583333 C11.0833333,3.34101888 8.85064779,1.10833333 6.09583333,1.10833333 C3.34101888,1.10833333 1.10833333,3.34101888 1.10833333,6.09583333 C1.10833333,8.85064779 3.34101888,11.0833333 6.09583333,11.0833333 C7.30504232,11.0833333 8.41294271,10.6534212 9.27666341,9.93776693 L11.9483529,12.6094564 C12.0392708,12.7003743 12.158763,12.7458333 12.279554,12.7458333 C12.4003451,12.7458333 12.5185384,12.7003743 12.6107552,12.6094564 C12.7912923,12.4263216 12.7912923,12.1301888 12.6094564,11.947054 Z M7.67261068,9.82996419 C7.17386068,10.0416732 6.6439388,10.1481771 6.09583333,10.1481771 C5.54772786,10.1481771 5.01780599,10.0416732 4.51905599,9.82996419 C4.03719076,9.62604818 3.60338216,9.33381185 3.23061849,8.96104818 C2.85785482,8.58828451 2.56561849,8.15447591 2.36170247,7.67261068 C2.14999349,7.17386068 2.04348958,6.6439388 2.04348958,6.09583333 C2.04348958,5.54772786 2.14999349,5.01780599 2.36170247,4.51905599 C2.56561849,4.03719076 2.85785482,3.60338216 3.23061849,3.23061849 C3.60338216,2.85785482 4.03719076,2.56561849 4.51905599,2.36170247 C5.01780599,2.14999349 5.54772786,2.04348958 6.09583333,2.04348958 C6.6439388,2.04348958 7.17386068,2.14999349 7.67261068,2.36170247 C8.15447591,2.56561849 8.58828451,2.85785482 8.96104818,3.23061849 C9.33381185,3.60338216 9.62604818,4.03719076 9.82996419,4.51905599 C10.0416732,5.01780599 10.1481771,5.54772786 10.1481771,6.09583333 C10.1481771,6.6439388 10.0416732,7.17386068 9.82996419,7.67261068 C9.62604818,8.15447591 9.33381185,8.58828451 8.96104818,8.96104818 C8.58828451,9.33381185 8.15577474,9.62604818 7.67261068,9.82996419 Z" id="path-1"></path>
    </defs>
    <g id="Slice" stroke="none" stroke-width="1" fill="none" fill-rule="evenodd">
        <g id="Search">
            <g id="Select/Medium/Placeholder">
                <path d="M0.5,4.0042577 L0.5,27.9957423 C0.5,29.9335056 2.06695555,31.5 4.00285246,31.5 L267.997148,31.5 C269.932569,31.5 271.5,29.9316402 271.5,27.9957423 L271.5,4.0042577 C271.5,2.06649443 269.933044,0.5 267.997148,0.5 L4.00285246,0.5 C2.0674308,0.5 0.5,2.06835976 0.5,4.0042577 Z" id="Rectangle-26-Copy-23" stroke-opacity="0.15" stroke="#000000" stroke-width="1" fill="#FFFFFF" fill-rule="evenodd"></path>
                <g id="Select/_Icon/Search" transform="translate(246.000000, 9.000000)" fill-rule="evenodd" stroke-width="1">
                    <g id="Group">
                        <rect id="Rectangle" x="0" y="0" width="13.3" height="13.3"></rect>
                        <mask id="mask-2" fill="white">
                            <use xlink:href="#path-1"></use>
                        </mask>
                        <use id="Mask" fill-opacity="0.25" fill="#000000" fill-rule="nonzero" xlink:href="#path-1"></use>
                    </g>
                </g>
                <text id="Text" font-family="PingFangSC-Regular, PingFang SC" font-size="14" font-weight="normal" line-spacing="22" fill="#000000" fill-opacity="0.25">
                    <tspan x="12" y="20">搜索</tspan>
                </text>
            </g>
        </g>
    </g>
</svg>