<?xml version="1.0" encoding="UTF-8"?>
<svg width="88px" height="88px" viewBox="0 0 88 88" version="1.1" xmlns="http://www.w3.org/2000/svg" xmlns:xlink="http://www.w3.org/1999/xlink">
    <!-- Generator: Sketch 60 (88103) - https://sketch.com -->
    <title>icon/作业布置提交成功</title>
    <desc>Created with Sketch.</desc>
    <g id="Slice" stroke="none" stroke-width="1" fill="none" fill-rule="evenodd">
        <g id="icon/作业布置提交成功">
            <g id="Group-11" transform="translate(8.000000, 3.000000)">
                <g id="014-pdf" fill-rule="nonzero">
                    <path d="M70.7084291,47.5182342 L64.2427163,41.6046065 L67.1072726,38.9846449 C67.6597227,38.4793666 67.4141893,37.6372361 66.6775891,37.431382 L60.2118763,35.6722649 L60.2118763,16.5278311 C60.2118763,15.5547025 59.3525095,14.768714 58.2885314,14.768714 L52.068352,14.768714 L52.068352,6.75911708 C52.068352,5.78598848 51.2089851,5 50.145007,5 L3.92334495,5 C2.85936689,5 2,5.78598848 2,6.75911708 L2,71.4721689 C2,72.4452975 2.85936689,73.231286 3.92334495,73.231286 L10.1435244,73.231286 L10.1435244,81.2408829 C10.1435244,82.2140115 11.0028912,83 12.0668693,83 L58.2885314,83 C59.3525095,83 60.2118763,82.2140115 60.2118763,81.2408829 L60.2118763,45.3286948 L66.657128,51.2236084 C67.0663504,51.5978887 67.700645,51.5978887 68.1098673,51.2236084 L70.7084291,48.846929 C71.0971903,48.4726488 71.0971903,47.8925144 70.7084291,47.5182342 L70.7084291,47.5182342 Z" id="Path" fill="#DFF7F6"></path>
                    <path d="M51.0408664,73 L3.95913363,73 C2.87535758,73 2,72.1821174 2,71.1695008 L2,3.83049918 C2,2.81788261 2.87535758,2 3.95913363,2 L51.0408664,2 C52.1246424,2 53,2.81788261 53,3.83049918 L53,71.1695008 C53,72.1821174 52.1246424,73 51.0408664,73 L51.0408664,73 Z" id="Path" fill="#F6FEFE"></path>
                    <path d="M19.1053075,6.55874841 L26,1 L3.90058972,1 C2.84919966,1 2,1.68465523 2,2.53232361 L2,6.99888391 L17.7708509,6.99888391 C18.2763269,7.01518523 18.7615838,6.85217208 19.1053075,6.55874841 Z" id="Path" fill="#D7FEFF"></path>
                    <path d="M45.9859763,6 L28.0140237,6 C27.4530744,6 27,5.55319149 27,5 C27,4.44680851 27.4530744,4 28.0140237,4 L45.9859763,4 C46.5469256,4 47,4.44680851 47,5 C47,5.55319149 46.5469256,6 45.9859763,6 Z" id="Path" fill="#0FB1B5"></path>
                    <path d="M44.9859763,1.868 L27.0140237,1.868 C26.4530744,1.868 26,1.45068085 26,0.934 C26,0.417319149 26.4530744,0 27.0140237,0 L44.9859763,0 C45.5469256,0 46,0.417319149 46,0.934 C46,1.45068085 45.5469256,1.868 44.9859763,1.868 Z" id="Path-Copy" fill="#0FB1B5"></path>
                    <path d="M60,13.7015908 L60,76.2984092 C60,77.2397148 59.1246424,78 58.0408664,78 L10.9591336,78 C9.87535758,78 9,77.2397148 9,76.2984092 L9,13.7015908 C9,12.7602852 9.87535758,12 10.9591336,12 L58.0408664,12 C59.1246424,12 60,12.7602852 60,13.7015908 Z" id="Path" fill="#FFFFFF"></path>
                    <path d="M61,35.1356808 L61,45.0517697 L60.9790236,45.0325896 L58.0423254,47.7177974 C57.4759621,48.2356589 56.5320234,48.0054983 56.3012829,47.3150162 L52.0430705,34.2342182 C51.8123299,33.5053761 52.5465044,32.8148941 53.3436082,33.0450548 L61,35.1356808 Z" id="Path" fill="#DFF7F6"></path>
                    <path d="M60,38 L60,12.9344512 C60,11.8643293 59.1246424,11 58.0408664,11 L10.9591336,11 C9.87535758,11 9,11.8643293 9,12.9344512 L9,38 L60,38 Z" id="Path" fill="#53C2C5"></path>
                    <path d="M26.1111111,18.4852065 L33,12 L10.8989899,12 C9.84848485,12 9,12.7987644 9,13.7877109 L9,18.9986979 L24.7575758,18.9986979 C25.2626263,19.0177161 25.7474747,18.8275341 26.1111111,18.4852065 L26.1111111,18.4852065 Z" id="Path" fill="#6CDDDA"></path>
                    <path d="M67.3715941,33.8525614 L52.4115331,30.0385772 C51.5779814,29.8319081 50.7883007,30.4894916 51.0515276,31.2034394 L55.504449,44.016923 C55.7457403,44.6932946 56.7328411,44.9187517 57.3251015,44.4114731 L60.3960818,41.7811392 L67.3277229,47.7181785 C67.7664344,48.0939405 68.4464371,48.0939405 68.8851486,47.7181785 L71.6709664,45.3320899 C72.1096779,44.9563279 72.1096779,44.3738969 71.6709664,43.9981349 L64.7393253,38.0610956 L67.8103055,35.4307617 C68.4245016,34.9046949 68.1832103,34.0404423 67.3715941,33.8525614 L67.3715941,33.8525614 Z" id="Path" fill="#34DADE"></path>
                    <path d="M65.5921659,37.6194939 L67.7695853,35.651359 C68.2880184,35.1827554 68.4953917,34.5079663 68.3087558,33.8706654 C68.1221198,33.2333646 67.6036866,32.7272727 66.8986175,32.5398313 L61.0921659,30.9653233 L61.0921659,12.502343 C61.0921659,11.0215558 59.7442396,9.8031865 58.1059908,9.8031865 L52.8387097,9.8031865 L52.8387097,2.69915651 C52.8387097,1.21836926 51.4907834,0 49.8525346,0 L35.7304147,0 C35.1497696,0 34.6935484,0.412371134 34.6935484,0.937207123 C34.6935484,1.46204311 35.1497696,1.87441425 35.7304147,1.87441425 L49.8317972,1.87441425 C50.3294931,1.87441425 50.7442396,2.24929709 50.7442396,2.69915651 L50.7442396,9.8031865 L11.2396313,9.8031865 C9.60138249,9.8031865 8.25345622,11.0215558 8.25345622,12.502343 L8.25345622,63.5426429 C8.25345622,64.0674789 8.70967742,64.47985 9.29032258,64.47985 C9.87096774,64.47985 10.3271889,64.0674789 10.3271889,63.5426429 L10.3271889,12.4835989 C10.3271889,12.0337395 10.7419355,11.6588566 11.2396313,11.6588566 L58.0852535,11.6588566 C58.5829493,11.6588566 58.9976959,12.0337395 58.9976959,12.4835989 L58.9976959,30.3842549 L52.735023,28.6972821 C52.0092166,28.4910965 51.2211982,28.678538 50.6820276,29.1658857 C50.1428571,29.6532334 49.9354839,30.3655108 50.1635945,31.0215558 L54.3732719,43.8050609 C54.5806452,44.4423618 55.140553,44.9297095 55.8456221,45.0796626 C56.5506912,45.2296157 57.297235,45.0609185 57.8156682,44.5923149 L58.9769585,43.5426429 L58.9769585,77.3008435 C58.9769585,77.7507029 58.562212,78.1255858 58.0645161,78.1255858 L11.2396313,78.1255858 C10.7419355,78.1255858 10.3271889,77.7507029 10.3271889,77.3008435 L10.3271889,69.2596064 C10.3271889,68.7347704 9.87096774,68.3223993 9.29032258,68.3223993 L2.98617512,68.3223993 C2.48847926,68.3223993 2.07373272,67.9475164 2.07373272,67.497657 L2.07373272,2.69915651 C2.07373272,2.24929709 2.48847926,1.87441425 2.98617512,1.87441425 L29.3640553,1.87441425 C29.9447005,1.87441425 30.4009217,1.46204311 30.4009217,0.937207123 C30.4009217,0.412371134 29.9447005,0 29.3640553,0 L2.98617512,0 C1.34792627,0 0,1.21836926 0,2.69915651 L0,67.5164011 C0,68.9971884 1.34792627,70.2155576 2.98617512,70.2155576 L8.25345622,70.2155576 L8.25345622,77.3008435 C8.25345622,78.7816307 9.60138249,80 11.2396313,80 L58.0852535,80 C59.7235023,80 61.0714286,78.7816307 61.0714286,77.3008435 L61.0714286,43.5988754 L65.8202765,47.891284 C66.235023,48.2474227 66.7534562,48.4348641 67.2926267,48.4348641 C67.8317972,48.4348641 68.3502304,48.2474227 68.764977,47.891284 L71.3986175,45.5107779 C71.7926267,45.1546392 72,44.6860356 72,44.1799438 C72,43.6925961 71.7926267,43.2239925 71.3986175,42.8678538 L65.5921659,37.6194939 Z M67.2937063,47 L60.6643357,41.1072261 C60.4755245,40.9393939 60.2027972,40.8275058 59.9300699,40.8275058 C59.6573427,40.8275058 59.3846154,40.9207459 59.1958042,41.1072261 L56.2587413,43.7179487 L52,31 L66.3076923,34.7855478 L63.3706294,37.3962704 C62.951049,37.7692308 62.951049,38.3473193 63.3706294,38.7202797 L70,44.6130536 L67.2937063,47 Z" id="Shape" fill="#0FB1B5"></path>
                    <path d="M52.9859763,16 L35.0140237,16 C34.4530744,16 34,15.5531915 34,15 C34,14.4468085 34.4530744,14 35.0140237,14 L52.9859763,14 C53.5469256,14 54,14.4468085 54,15 C54,15.5531915 53.5469256,16 52.9859763,16 Z" id="Path" fill="#039C9F"></path>
                    <g id="Group" transform="translate(15.000000, 42.000000)" fill="#6D65A8">
                        <path d="M11.4483871,5.95 L1.06935484,5.95 C0.482258065,5.95 0.0209677419,5.49390244 0.0209677419,4.91341463 C0.0209677419,4.33292683 0.482258065,3.87682927 1.06935484,3.87682927 L11.4483871,3.87682927 C12.0354839,3.87682927 12.4967742,4.33292683 12.4967742,4.91341463 C12.4967742,5.49390244 12.0354839,5.95 11.4483871,5.95 Z" id="Path"></path>
                        <path d="M37.8677419,9.57804878 L1.06935484,9.57804878 C0.482258065,9.57804878 0.0209677419,9.12195122 0.0209677419,8.54146341 C0.0209677419,7.96097561 0.482258065,7.50487805 1.06935484,7.50487805 L37.8677419,7.50487805 C38.4548387,7.50487805 38.916129,7.96097561 38.916129,8.54146341 C38.916129,9.12195122 38.4548387,9.57804878 37.8677419,9.57804878 Z" id="Path"></path>
                        <path d="M37.8677419,16.8341463 L1.06935484,16.8341463 C0.482258065,16.8341463 0.0209677419,16.3780488 0.0209677419,15.797561 C0.0209677419,15.2170732 0.482258065,14.7609756 1.06935484,14.7609756 L37.8677419,14.7609756 C38.4548387,14.7609756 38.916129,15.2170732 38.916129,15.797561 C38.916129,16.3780488 38.4548387,16.8341463 37.8677419,16.8341463 Z" id="Path"></path>
                        <ellipse id="Oval" cx="1.40483871" cy="1.18170732" rx="1.0483871" ry="1.03658537"></ellipse>
                        <ellipse id="Oval" cx="4.8016129" cy="1.18170732" rx="1.0483871" ry="1.03658537"></ellipse>
                    </g>
                    <g id="Group" transform="translate(15.000000, 63.000000)" fill="#0FB1B5">
                        <path d="M37.8677419,2.07391304 L1.06935484,2.07391304 C0.482258065,2.07391304 0.0209677419,1.64347826 0.0209677419,1.09565217 C0.0209677419,0.547826087 0.482258065,0.117391304 1.06935484,0.117391304 L37.8677419,0.117391304 C38.4548387,0.117391304 38.916129,0.547826087 38.916129,1.09565217 C38.916129,1.64347826 38.4548387,2.07391304 37.8677419,2.07391304 Z" id="Path"></path>
                        <path d="M37.8677419,5.49782609 L1.06935484,5.49782609 C0.482258065,5.49782609 0.0209677419,5.0673913 0.0209677419,4.51956522 C0.0209677419,3.97173913 0.482258065,3.54130435 1.06935484,3.54130435 L37.8677419,3.54130435 C38.4548387,3.54130435 38.916129,3.97173913 38.916129,4.51956522 C38.916129,5.0673913 38.4548387,5.49782609 37.8677419,5.49782609 Z" id="Path"></path>
                        <path d="M37.8677419,8.92173913 L1.06935484,8.92173913 C0.482258065,8.92173913 0.0209677419,8.49130435 0.0209677419,7.94347826 C0.0209677419,7.39565217 0.482258065,6.96521739 1.06935484,6.96521739 L37.8677419,6.96521739 C38.4548387,6.96521739 38.916129,7.39565217 38.916129,7.94347826 C38.916129,8.49130435 38.4548387,8.92173913 37.8677419,8.92173913 Z" id="Path"></path>
                    </g>
                    <path d="M35.4776786,77 C35.1875,77 34.8973214,76.9074074 34.6964286,76.7222222 L33.3348214,75.5925926 C32.8883929,75.2222222 32.8883929,74.6481481 33.3348214,74.2777778 C33.78125,73.9074074 34.4732143,73.9074074 34.9196429,74.2777778 L35.5,74.7592593 L36.0803571,74.2777778 C36.5267857,73.9074074 37.21875,73.9074074 37.6651786,74.2777778 C38.1116071,74.6481481 38.1116071,75.2222222 37.6651786,75.5925926 L36.3035714,76.7222222 C36.0580357,76.8888889 35.7678571,77 35.4776786,77 Z" id="Path" fill="#6D65A8"></path>
                    <path d="M15.5751834,68.08 L2.99481661,68.08 C2.6021521,68.08 2.285,67.6153191 2.285,67.04 C2.285,66.4646809 2.6021521,66 2.99481661,66 L15.5751834,66 C15.9678479,66 16.285,66.4646809 16.285,67.04 C16.285,67.6153191 15.9678479,68.08 15.5751834,68.08 Z" id="Path-Copy-2" fill="#0FB1B5" transform="translate(9.285000, 67.040000) rotate(90.000000) translate(-9.285000, -67.040000) "></path>
                </g>
                <path d="M43.6902282,22.8393381 L33.070915,33.6464167 L33.0592471,33.6584014 C32.9882799,33.7362264 32.902617,33.8052876 32.8081294,33.859106 C32.6427115,33.9550952 32.4595333,34 32.2822629,34 C31.9130265,34 31.5527256,33.8052876 31.3577319,33.4546256 L28.1409073,27.749917 C27.8485459,27.2315829 28.0258163,26.572542 28.5368026,26.2789192 C29.0478258,25.9822254 29.697608,26.1620319 29.9870893,26.680366 L32.5097125,31.159649 L42.1837067,21.317256 C42.5972145,20.8947613 43.2707756,20.8947613 43.6873481,21.3141849 C44.103736,21.7367171 44.103736,22.4199144 43.6902282,22.8393381 Z" id="Path" fill="#FFFFFF"></path>
            </g>
        </g>
    </g>
</svg>