<?xml version="1.0" encoding="UTF-8"?>
<svg width="24px" height="24px" viewBox="0 0 24 24" version="1.1" xmlns="http://www.w3.org/2000/svg" xmlns:xlink="http://www.w3.org/1999/xlink">
    <!-- Generator: Sketch 60 (88103) - https://sketch.com -->
    <title>icon/back</title>
    <desc>Created with Sketch.</desc>
    <g id="Slice" stroke="none" stroke-width="1" fill="none" fill-rule="evenodd">
        <g id="icon/back">
            <g id="Button/Secondary/Basic/Medium">
                <path d="M0.5,15.9958262 L0.5,20.0041738 C0.5,21.9302436 2.06545097,23.5 3.99005301,23.5 L20.009947,23.5 C21.9387931,23.5 23.5,21.9382215 23.5,20.009947 L23.5,3.99005301 C23.5,2.06120686 21.9382215,0.5 20.009947,0.5 L3.99005301,0.5 C2.06136889,0.5 0.5,2.06420057 0.5,3.99582624 L0.5,8.00417376 C0.5,9.83236513 0.5,9.83236513 0.5,12.0089986 C0.5,14.1738101 0.5,14.1738101 0.5,15.9958262 Z" id="Rectangle-77-Copy-4" stroke="#D9D9D9" fill="#FFFFFF"></path>
                <g id="返回" transform="translate(4.000000, 4.000000)" fill="#000000" fill-rule="nonzero">
                    <rect id="Rectangle" opacity="0" x="0" y="0" width="16" height="16"></rect>
                    <path d="M5.5121028,8.34092086 C5.42417841,8.34092086 5.33670172,8.30745555 5.26975511,8.24050894 C5.13586189,8.10661572 5.13586189,7.88972277 5.26975511,7.75582955 L10.2455495,2.780243 C10.3794427,2.64634978 10.5963357,2.64634978 10.7302289,2.780243 C10.8641221,2.91413622 10.8641221,3.13102917 10.7302289,3.26492239 L5.7544345,8.24050894 C5.68748789,8.30745555 5.60001119,8.34092086 5.5121028,8.34092086 Z M10.4695257,13.2983597 C10.3816013,13.2983597 10.2941246,13.2648944 10.227178,13.1979478 L5.26975511,8.24050894 C5.13586189,8.10661572 5.13586189,7.88972277 5.26975511,7.75582955 C5.40364833,7.62193633 5.62054128,7.62193633 5.7544345,7.75582955 L10.7118574,12.7132524 C10.8457506,12.8471456 10.8457506,13.0640386 10.7118574,13.1979318 C10.6449267,13.2648784 10.55745,13.2983597 10.4695257,13.2983597 Z" id="Shape" fill-opacity="0.65"></path>
                </g>
            </g>
        </g>
    </g>
</svg>