<?xml version="1.0" encoding="UTF-8"?>
<svg width="24px" height="24px" viewBox="0 0 24 24" version="1.1" xmlns="http://www.w3.org/2000/svg" xmlns:xlink="http://www.w3.org/1999/xlink">
    <!-- Generator: Sketch 60 (88103) - https://sketch.com -->
    <title>icon/班级名称图标</title>
    <desc>Created with Sketch.</desc>
    <g id="Slice" stroke="none" stroke-width="1" fill="none" fill-rule="evenodd">
        <g id="icon/班级名称图标" fill-rule="nonzero">
            <g id="班级管理-未点击">
                <polygon id="Path" fill-opacity="0.01" fill="#FFFFFF" points="0 0 24 0 24 24 0 24"></polygon>
                <path d="M5.99933476,16.1636905 C5.99968821,15.9413716 5.92074059,15.7280444 5.77993324,15.5708409 C5.63912589,15.4136375 5.44804839,15.3254969 5.24891705,15.3258915 L2.75108298,15.3258915 C2.33700744,15.3258915 2.00133289,15.7006545 2.00133289,16.1629464 C2.00133289,16.6252384 2.33700744,17 2.75108298,17 L5.24891705,17 C5.66344553,17 5.99933476,16.625 5.99933476,16.1622024 L5.99933476,16.1636905 Z M2.74975009,8.67410714 L5.25024991,8.67410714 C5.66432545,8.67410714 6,8.29934549 6,7.83705357 C6,7.37476165 5.66432545,7 5.25024991,7 L2.74975009,7 C2.33567455,7 2,7.37476165 2,7.83705357 C2,8.29934549 2.33567455,8.67410714 2.74975009,8.67410714 Z" id="Shape" fill="#0FB1B5"></path>
                <path d="M20.4423077,2 L5.55769231,2 C4.69646154,2 4,2.71857143 4,3.60714286 L4,4.85714286 C4,5.30094311 4.3487013,5.66071429 4.77884615,5.66071429 C5.20899101,5.66071429 5.55769231,5.30094311 5.55769231,4.85714286 L5.55769231,3.60714286 L20.4423077,3.60714286 L20.4423077,20.3928571 L5.55769231,20.3928571 L5.55769231,19.1871428 L5.55492307,19.1871428 L5.55769231,19.1428571 C5.55769231,18.6990569 5.20899101,18.3392857 4.77884615,18.3392857 C4.3487013,18.3392857 4,18.6990569 4,19.1428571 C4,19.1571429 4,19.1714286 4.00276924,19.1871428 L4,19.1871428 L4,20.3928571 C4,21.2814286 4.69646154,22 5.55769231,22 L20.4423077,22 C21.3035385,22 22,21.2814286 22,20.3928571 L22,3.60714286 C22,2.71857143 21.3035385,2 20.4423077,2 Z" id="Path" fill="#0FB1B5"></path>
                <path d="M11.1873148,12.4642408 C10.1668095,11.8188446 9.54927838,10.7061954 9.54823722,9.51099956 C9.55130276,7.57211119 11.1458566,6.00150886 13.1127791,6 C15.0791578,6.00302028 16.672244,7.57401495 16.6745406,9.51236997 C16.6745406,10.748483 16.0211339,11.8393322 15.0382434,12.4642408 C16.5655893,13.0984014 17.6694092,14.4442355 17.9785734,16.0492427 C18.045543,16.3256967 17.9528969,16.6160579 17.7374484,16.8049504 C17.5219998,16.9938429 17.2186439,17.0506726 16.9479202,16.952858 C16.6771966,16.8550435 16.4829529,16.6184272 16.4423727,16.3370296 C16.1320289,14.7662692 14.7361894,13.632449 13.1127791,13.632449 C11.4893688,13.632449 10.0935293,14.7662692 9.78318557,16.3370296 C9.68607743,16.7378969 9.28650469,16.9927531 8.87575966,16.9158054 C8.46501463,16.8388578 8.18814211,16.4572786 8.2469848,16.0492427 C8.55591532,14.4441288 9.65981416,13.0981985 11.1873148,12.4642408 L11.1873148,12.4642408 Z M2.78200266,12.2737533 C2.35011452,12.2737533 2,11.9286286 2,11.5028957 C2,11.0771628 2.35011452,10.732038 2.78200266,10.732038 L5.38728797,10.732038 C5.81917611,10.732038 6.16929063,11.0771628 6.16929063,11.5028957 C6.16929063,11.9286286 5.81917611,12.2737533 5.38728797,12.2737533 L2.78200266,12.2737533 Z M13.1113889,7.54171527 C12.0084688,7.54397923 11.1151622,8.42516729 11.1136328,9.51236997 C11.1159295,10.5995713 12.0098577,11.4801466 13.1127791,11.4816543 C14.2156992,11.4793903 15.1090058,10.5982022 15.1105352,9.51099956 C15.108241,8.42433202 14.2151577,7.54397681 13.1127791,7.54171527 L13.1113889,7.54171527 Z" id="Shape" fill="#0FB1B5"></path>
            </g>
        </g>
    </g>
</svg>