<?xml version="1.0" encoding="UTF-8"?>
<svg width="16px" height="16px" viewBox="0 0 16 16" version="1.1" xmlns="http://www.w3.org/2000/svg" xmlns:xlink="http://www.w3.org/1999/xlink">
    <!-- Generator: Sketch 60 (88103) - https://sketch.com -->
    <title>icon/编辑评语</title>
    <desc>Created with Sketch.</desc>
    <g id="Slice" stroke="none" stroke-width="1" fill="none" fill-rule="evenodd">
        <g id="icon/编辑评语" fill-rule="nonzero">
            <g id="编辑-铅笔-写-输入">
                <rect id="Rectangle" fill="#000000" opacity="0" x="0" y="0" width="16" height="16"></rect>
                <path d="M13.41,3.64 L11.34,1.56 C10.58,0.8 9.34,0.8 8.57,1.56 L1.37,8.77 C1.13,9.02 1,9.34 1,9.67 L1,12.98 C1,13.64 1.34,13.98 2,13.98 L5.34,13.96 C5.68,13.96 6,13.82 6.23,13.59 L13.41,6.39 C14.18,5.64 14.18,4.4 13.41,3.64 Z M5.21,12.97 L2,12.99 L2,9.8 C2,9.74 2.02,9.68 2.03,9.62 C2.05,9.69 2.09,9.75 2.14,9.81 L5.16,12.83 C5.22,12.89 5.28,12.92 5.35,12.94 C5.3,12.95 5.26,12.97 5.21,12.97 Z M5.97,12.48 C5.97,12.36 5.92,12.25 5.83,12.16 L2.81,9.14 C2.73,9.06 2.62,9.02 2.51,9.01 L7.39,4.13 L10.85,7.59 L5.97,12.48 Z M12.72,5.71 L11.59,6.85 L8.13,3.39 L9.27,2.25 C9.65,1.87 10.27,1.87 10.65,2.25 L12.72,4.33 C13.1,4.71 13.1,5.33 12.72,5.71 Z" id="Shape" fill="#0FB1B5"></path>
            </g>
        </g>
    </g>
</svg>