<?xml version="1.0" encoding="UTF-8"?>
<svg width="16px" height="16px" viewBox="0 0 16 16" version="1.1" xmlns="http://www.w3.org/2000/svg" xmlns:xlink="http://www.w3.org/1999/xlink">
    <!-- Generator: Sketch 60 (88103) - https://sketch.com -->
    <title>icon/feedback</title>
    <desc>Created with Sketch.</desc>
    <g id="Slice" stroke="none" stroke-width="1" fill="none" fill-rule="evenodd">
        <g id="icon/feedback" fill-rule="nonzero">
            <g id="警告">
                <rect id="Rectangle" fill="#000000" opacity="0" x="0" y="0" width="16" height="16"></rect>
                <path d="M8.04444444,9.64444444 C7.73333333,9.64444444 7.55555556,9.51111111 7.55555556,9.2 L7.55555556,6.08888889 C7.55555556,5.77777778 7.68888889,5.64444444 8,5.64444444 C8.31111111,5.64444444 8.44444444,5.77777777 8.44444444,6.08888889 L8.44444444,9.2 C8.44444444,9.42222222 8.35555555,9.64444444 8.04444444,9.64444444 Z M8.04444444,11.8666667 C7.64444444,11.8666667 7.33333333,11.5555556 7.33333333,11.1555556 C7.33333333,10.7555556 7.64444444,10.4444444 8.04444444,10.4444444 C8.44444444,10.4444444 8.75555556,10.7555555 8.75555556,11.1555556 C8.75555556,11.5555556 8.44444445,11.8666667 8.04444444,11.8666667 Z M15.4222222,14.5333333 L0.488888891,14.5333333 C0.311111109,14.5333333 0.177777781,14.4444444 0.0888888906,14.2222222 C7.2858386e-17,14 7.2858386e-17,13.9111111 0.0888888906,13.7333333 L6.66666667,2.08888889 C6.84444445,1.73333333 7.15555556,1.28888889 7.33333333,1.06666667 C7.73333333,0.533333344 8.22222222,0.622222234 8.53333333,0.933333328 C8.75555555,1.15555555 9.02222222,1.6 9.33333333,2.08888889 L15.9111111,13.6 C16,13.6888889 16,13.8222222 16,13.9111111 C15.9111111,14.3555555 15.6888889,14.5333333 15.4222222,14.5333333 Z M7.95555556,1.82222222 L1.33333333,13.6888889 L14.6666667,13.6888889 L7.95555556,1.82222222 Z" id="Shape" fill="#6D65A8"></path>
            </g>
        </g>
    </g>
</svg>