<?xml version="1.0" encoding="UTF-8"?>
<svg width="16px" height="16px" viewBox="0 0 16 16" version="1.1" xmlns="http://www.w3.org/2000/svg" xmlns:xlink="http://www.w3.org/1999/xlink">
    <!-- Generator: Sketch 60 (88103) - https://sketch.com -->
    <title>icon/flag</title>
    <desc>Created with Sketch.</desc>
    <g id="Slice" stroke="none" stroke-width="1" fill="none" fill-rule="evenodd">
        <g id="icon/flag" fill-rule="nonzero">
            <g id="旗帜">
                <rect id="Rectangle" fill="#000000" opacity="0" x="0" y="0" width="16" height="16"></rect>
                <path d="M5.63387183,3.25976699 C5.0969169,3.25976699 4.5713812,3.33004554 4.05659298,3.47051865 L4.05659298,8.68296972 C4.58212869,8.57935715 5.10833612,8.52671122 5.63387183,8.52671121 C6.02246093,8.52671121 6.41163781,8.57054084 6.80064674,8.66013129 C7.18957172,8.74963777 7.63156244,8.87608877 8.12779443,9.04107961 C8.1911039,9.06391803 8.30915841,9.1043051 8.48279763,9.16224081 C8.65702459,9.22185583 8.78406334,9.26409013 8.86483749,9.2903711 C8.94628334,9.31673605 9.06442183,9.35183334 9.22059636,9.39751019 C9.37643504,9.44310308 9.50750409,9.47475782 9.61287992,9.49574901 C9.71842368,9.51682418 9.84025661,9.53613608 9.97644752,9.55368473 C10.1131422,9.57131734 10.2432877,9.58004967 10.3672197,9.58004967 C10.9039227,9.58004967 11.4297943,9.51161836 11.9444986,9.37114524 L11.9444986,4.15693092 C11.4252561,4.26162053 10.8969106,4.31455352 10.3672197,4.31495269 C9.97787492,4.31495269 9.58886599,4.26927583 9.2004448,4.17976935 C8.81177172,4.09017891 8.36936117,3.96381187 7.87363297,3.79882103 C7.75482293,3.75884586 7.63615196,3.71845855 7.5176222,3.67765982 C7.39039894,3.63496935 7.2629952,3.59281864 7.13541441,3.55120882 C7.05464027,3.52492784 6.93633386,3.48983055 6.78049519,3.44415371 C6.62465651,3.39847685 6.49383934,3.36514282 6.38812766,3.34406765 C6.28233201,3.32475575 6.1611708,3.30544385 6.02456006,3.28613194 C5.89502318,3.26905082 5.76452916,3.26024464 5.63387183,3.25976699 L5.63387183,3.25976699 Z M5.63387183,2.2064284 C5.9238023,2.2064284 6.23673912,2.24337305 6.57066714,2.31524692 C6.90442724,2.38905198 7.22660019,2.4767952 7.53617842,2.5786445 L8.46415743,2.88763499 C8.46415743,2.88763499 8.78641434,2.97537821 9.43008854,3.15094861 C10.0734269,3.32651902 10.3859439,3.36337956 10.366464,3.25976699 C10.662356,3.25976699 10.9540497,3.24221834 11.2415452,3.20712106 C11.5295445,3.17202377 11.7743019,3.12819415 11.9774128,3.07546425 C12.1804397,3.02281831 12.3611319,2.97185168 12.5214207,2.91928971 C12.6816256,2.86655982 12.8015273,2.82273019 12.8808741,2.78746497 L12.9959058,2.734903 L12.9959058,10.1066769 C12.9685333,10.120699 12.9273905,10.140011 12.8726455,10.1628494 C12.8174806,10.1856878 12.7017771,10.2278381 12.525451,10.2909797 C12.3441182,10.3535796 12.1597169,10.4069103 11.9729626,10.4507647 C11.7811031,10.4964416 11.5393684,10.5385919 11.2473388,10.5772157 C10.9553371,10.6158932 10.6611001,10.6352473 10.366548,10.6351514 C10.0765336,10.6351514 9.76401657,10.5982069 9.43008854,10.5244858 C9.10350981,10.4545628 8.78104178,10.3666578 8.46415743,10.2611722 L7.53617842,9.95386099 L6.57058318,9.68886806 C5.92699296,9.51506092 5.61472785,9.4781164 5.63387183,9.57996571 C5.1107711,9.57996571 4.58489953,9.63966469 4.05659298,9.75729938 L4.05659298,13.2667763 C4.05659298,13.4125392 4.00520653,13.537143 3.90209775,13.6389923 C3.7994088,13.7426048 3.67547675,13.7934875 3.53030159,13.7934875 C3.38521041,13.7934875 3.26127835,13.7426048 3.15850544,13.6389923 C3.05548063,13.5372269 3.00409417,13.4126232 3.00409417,13.2668603 L3.00409417,2.734903 C3.03146669,2.72079691 3.07294531,2.70148501 3.12769035,2.67864658 C3.18251937,2.65589212 3.29822287,2.61197853 3.47454897,2.5505163 C3.65588182,2.48791634 3.84028313,2.43458568 4.02703737,2.39073127 C4.21931678,2.34513839 4.46130334,2.30298805 4.75232535,2.26436424 C5.04447145,2.22572409 5.33884562,2.2064284 5.63353597,2.2064284 L5.63387183,2.2064284 Z" id="Shape" fill="#0FB1B5"></path>
            </g>
        </g>
    </g>
</svg>