<?xml version="1.0" encoding="UTF-8"?>
<svg width="24px" height="24px" viewBox="0 0 24 24" version="1.1" xmlns="http://www.w3.org/2000/svg" xmlns:xlink="http://www.w3.org/1999/xlink">
    <!-- Generator: Sketch 60 (88103) - https://sketch.com -->
    <title>icon/作业批改成功</title>
    <desc>Created with Sketch.</desc>
    <g id="Slice" stroke="none" stroke-width="1" fill="none" fill-rule="evenodd">
        <g id="icon/作业批改成功" fill-rule="nonzero">
            <g id="成绩单">
                <rect id="Rectangle" fill="#000000" opacity="0" x="0" y="0" width="24" height="24"></rect>
                <polygon id="Path" fill="#FFFFFF" points="4.85859375 1.87265625 19.3828125 1.87265625 19.3828125 3.8203125 4.85859375 3.8203125"></polygon>
                <path d="M21.1265625,10.0617188 C21.39375,10.0617188 21.6445313,10.1671875 21.834375,10.3570313 C22.0242188,10.546875 22.1296875,10.7976563 22.1296875,11.0648438 L22.1296875,21.1148438 C22.1296875,21.3820313 22.0242188,21.6328125 21.834375,21.8226563 C21.6445313,22.0125 21.39375,22.1179688 21.1265625,22.1179688 L2.878125,22.1179688 C2.6109375,22.1179688 2.36015625,22.0125 2.1703125,21.8226563 C1.98046875,21.6328125 1.875,21.3796875 1.875,21.1125 L1.875,11.0625 C1.875,10.7953125 1.98046875,10.5445313 2.1703125,10.3546875 C2.36015625,10.1648438 2.6109375,10.059375 2.878125,10.059375 L21.1265625,10.059375 M21.1265625,9.68671875 L2.878125,9.68671875 C2.11875,9.68671875 1.5,10.3054687 1.5,11.0625 L1.5,21.1125 C1.5,21.8695312 2.11875,22.4882812 2.87578125,22.4882812 L21.1265625,22.4882812 C21.8835938,22.4882812 22.5023504,21.8695312 22.5023504,21.1125 L22.5023504,11.0625 C22.5046875,10.3054687 21.8859375,9.68671875 21.1265625,9.68671875 Z" id="Shape" fill="#0FB1B5"></path>
                <path d="M11.8617187,17.5710938 L22.1296875,11.2429688 L22.1296875,11.0414063 C22.1296875,10.7742188 22.0242187,10.5234375 21.834375,10.3335938 C21.6445312,10.14375 21.39375,10.0382813 21.1265625,10.0382813 L2.878125,10.0382813 C2.6109375,10.0382813 2.36015625,10.14375 2.1703125,10.3335938 C2.14453125,10.359375 2.11875,10.3875 2.09765625,10.415625 L11.8617187,17.5710938 Z" id="Path" fill="#B1ADCE"></path>
                <polygon id="Path" fill="#53C2C5" points="4.85859375 3.7734375 19.3921875 3.7734375 19.3921875 17.71875 4.85859375 17.71875"></polygon>
                <g id="Group-14" transform="translate(8.000000, 7.000000)" fill="#FFFFFF">
                    <path d="M0.00577371796,4.49767887 C0.0468845817,4.80319508 0.297124622,4.82568707 0.525915516,4.93439836 C0.545577234,4.97750801 0.62958639,5 0.651035536,5 C0.6921464,5 0.735044693,4.95689035 0.713595547,4.91190637 C0.713595547,4.84630473 0.672484683,4.78070309 0.672484683,4.69448379 C0.631373819,4.30274829 1.00673388,3.38619967 1.17296476,3.01508182 C1.90223574,1.31318786 1.90223574,1.33380551 1.88078659,1.15949259 C1.88078659,1.07139896 1.71455571,0.767757082 1.56798654,0.767757082 C1.40175566,0.786500407 0.797604703,1.26820388 0.631373819,1.39940715 C0.506253799,1.50811844 0.402582925,1.57372008 0.402582925,1.74990734 C0.402582925,1.79301699 0.402582925,1.88111062 0.465142935,1.88111062 C0.554514378,1.8454983 0.627798961,1.78926833 0.684996685,1.71616936 L1.13006647,1.50999278 L1.14972819,1.50999278 C1.00494645,1.74990734 0.608137244,2.44903339 0.275675476,3.21188674 C0.152342884,3.49303662 -0.0353371458,4.19028833 0.00577371796,4.49767887 L0.00577371796,4.49767887 Z M5.34303629,0.743390758 C5.32337458,0.612187479 5.01057453,0.351655254 4.78178363,0.372272912 C4.408211,0.415382561 3.57348172,0.983305326 3.13734908,1.61682973 C2.76377645,2.16226051 2.42952725,2.94760585 2.49208726,3.6242399 C2.57609642,4.14905302 2.9282199,4.64949981 3.46981085,4.54078852 C4.8228945,4.30087396 5.65583634,2.59897999 5.5289289,1.46500879 C5.50926718,1.22509423 5.44670717,0.919578019 5.17680541,0.87646837 C5.21791627,0.829610056 5.34303629,0.808992398 5.34303629,0.743390758 L5.34303629,0.743390758 Z M4.58516646,2.9907155 L4.08468638,3.60174791 C3.95956636,3.73295119 3.62710459,4.01597541 3.4608737,4.0384674 C3.29285539,4.05908506 3.23208281,3.7104592 3.23208281,3.60174791 C3.19097195,2.96822351 3.56633201,2.05167488 4.52260645,1.33193118 C4.52260645,1.37504083 4.54226816,1.44064247 4.58516646,1.44064247 C4.64772647,1.44064247 4.77284649,1.2007279 4.91941565,1.17823591 C5.08564654,1.15761825 5.16965569,1.37504083 5.16965569,1.50624411 C5.20897913,1.89985395 4.79250821,2.6627073 4.58516646,2.9907155 Z M8.79992371,0.372272912 C8.78026199,0.241069633 8.46746194,-0.019462593 8.23867105,0.00115506513 C7.88476013,0.044264714 7.05181828,0.612187479 6.61568564,1.26632954 C6.24211301,1.81176032 5.90786381,2.59710566 5.97042382,3.27373971 C6.03298383,3.77606084 6.38689475,4.29899962 6.90703655,4.19028833 C8.28156934,3.92975611 9.11272376,2.2484798 8.98760374,1.09201661 C8.96794202,0.852102047 8.90359458,0.54658584 8.63369283,0.503476191 C8.67659112,0.460366542 8.79992371,0.437874551 8.79992371,0.372272912 Z M7.81147555,2.61959765 L7.31099547,3.23063006 C7.18587545,3.36183334 6.85341368,3.64485756 6.6871828,3.66734955 C6.52095191,3.68796721 6.4583919,3.33934135 6.4583919,3.23063006 C6.41728104,2.59710566 6.7926411,1.70304903 7.74891554,0.960813335 C7.74891554,1.00392298 7.76857726,1.06952462 7.81147555,1.06952462 C7.87403556,1.06952462 7.99915558,0.829610056 8.14572475,0.808992398 C8.31195563,0.786500407 8.39596479,1.00579732 8.39596479,1.13512626 C8.43528822,1.5287361 8.0188173,2.29158945 7.81147555,2.61959765 L7.81147555,2.61959765 Z" id="Shape"></path>
                    <path d="M1.65298867,6.77774857 C5.06784683,5.36091183 9,5 9,5 C8.52359085,5.02268589 7.69698541,5.09693061 7.69698541,5.09693061 C7.92452411,5.07424472 8.33871565,5 8.33871565,5 C3.6208429,5.33822595 1.07347604,6.77774857 1.07347604,6.77774857 C1.07347604,6.77774857 0.908154951,6.89736506 1.07347604,6.99429567 C1.15524776,7.0417298 1.65298867,6.77774857 1.65298867,6.77774857 L1.65298867,6.77774857 Z" id="Path"></path>
                </g>
                <path d="M19.3921875,1.87265625 L19.3921875,17.71875 L4.85859375,17.71875 L4.85859375,1.87265625 L19.3921875,1.87265625 M19.7671875,1.49765625 L4.48359375,1.49765625 L4.48359375,18.09375 L19.7671875,18.09375 L19.7671875,1.49765625 Z" id="Shape" fill="#0FB1B5"></path>
                <path d="M7.509375,2.9296875 L7.11328125,2.9296875 C7.01015625,2.9296875 6.92578125,2.8453125 6.92578125,2.7421875 C6.92578125,2.6390625 7.01015625,2.5546875 7.11328125,2.5546875 L7.509375,2.5546875 C7.6125,2.5546875 7.696875,2.6390625 7.696875,2.7421875 C7.696875,2.8453125 7.6125,2.9296875 7.509375,2.9296875 Z M8.6109375,2.9296875 L8.21484375,2.9296875 C8.11171875,2.9296875 8.02734375,2.8453125 8.02734375,2.7421875 C8.02734375,2.6390625 8.11171875,2.5546875 8.21484375,2.5546875 L8.6109375,2.5546875 C8.7140625,2.5546875 8.7984375,2.6390625 8.7984375,2.7421875 C8.7984375,2.8453125 8.7140625,2.9296875 8.6109375,2.9296875 Z M9.7125,2.9296875 L9.31640625,2.9296875 C9.21328125,2.9296875 9.12890625,2.8453125 9.12890625,2.7421875 C9.12890625,2.6390625 9.21328125,2.5546875 9.31640625,2.5546875 L9.7125,2.5546875 C9.815625,2.5546875 9.9,2.6390625 9.9,2.7421875 C9.9,2.8453125 9.815625,2.9296875 9.7125,2.9296875 Z M10.8117188,2.9296875 L10.415625,2.9296875 C10.3125,2.9296875 10.228125,2.8453125 10.228125,2.7421875 C10.228125,2.6390625 10.3125,2.5546875 10.415625,2.5546875 L10.8117188,2.5546875 C10.9148438,2.5546875 10.9992188,2.6390625 10.9992188,2.7421875 C10.9992188,2.8453125 10.9148438,2.9296875 10.8117188,2.9296875 Z M11.9132813,2.9296875 L11.5171875,2.9296875 C11.4140625,2.9296875 11.3296875,2.8453125 11.3296875,2.7421875 C11.3296875,2.6390625 11.4140625,2.5546875 11.5171875,2.5546875 L11.9132813,2.5546875 C12.0164063,2.5546875 12.1007813,2.6390625 12.1007813,2.7421875 C12.1007813,2.8453125 12.0164063,2.9296875 11.9132813,2.9296875 L11.9132813,2.9296875 Z M13.0148438,2.9296875 L12.61875,2.9296875 C12.515625,2.9296875 12.43125,2.8453125 12.43125,2.7421875 C12.43125,2.6390625 12.515625,2.5546875 12.61875,2.5546875 L13.0148438,2.5546875 C13.1179688,2.5546875 13.2023438,2.6390625 13.2023438,2.7421875 C13.2023438,2.8453125 13.1179688,2.9296875 13.0148438,2.9296875 Z M14.1164063,2.9296875 L13.7203125,2.9296875 C13.6171875,2.9296875 13.5328125,2.8453125 13.5328125,2.7421875 C13.5328125,2.6390625 13.6171875,2.5546875 13.7203125,2.5546875 L14.1164063,2.5546875 C14.2195313,2.5546875 14.3039063,2.6390625 14.3039063,2.7421875 C14.3039063,2.8453125 14.2195313,2.9296875 14.1164063,2.9296875 Z M15.215625,2.9296875 L14.8195312,2.9296875 C14.7164062,2.9296875 14.6320312,2.8453125 14.6320312,2.7421875 C14.6320312,2.6390625 14.7164062,2.5546875 14.8195312,2.5546875 L15.215625,2.5546875 C15.31875,2.5546875 15.403125,2.6390625 15.403125,2.7421875 C15.403125,2.8453125 15.31875,2.9296875 15.215625,2.9296875 Z M16.3171875,2.9296875 L15.9210937,2.9296875 C15.8179687,2.9296875 15.7335937,2.8453125 15.7335937,2.7421875 C15.7335937,2.6390625 15.8179687,2.5546875 15.9210937,2.5546875 L16.3171875,2.5546875 C16.4203125,2.5546875 16.5046875,2.6390625 16.5046875,2.7421875 C16.5046875,2.8453125 16.4203125,2.9296875 16.3171875,2.9296875 Z M17.41875,2.9296875 L17.0226562,2.9296875 C16.9195312,2.9296875 16.8351562,2.8453125 16.8351562,2.7421875 C16.8351562,2.6390625 16.9195312,2.5546875 17.0226562,2.5546875 L17.41875,2.5546875 C17.521875,2.5546875 17.60625,2.6390625 17.60625,2.7421875 C17.60625,2.8453125 17.521875,2.9296875 17.41875,2.9296875 Z" id="Shape" fill="#0FB1B5"></path>
                <path d="M11.8148438,17.5710938 L2.11875,10.3921875 C1.96171875,10.575 1.875,10.8023438 1.875,11.04375 L1.875,21.09375 C1.875,21.3609375 1.98046875,21.6117188 2.1703125,21.8015625 C2.36015625,21.9914063 2.6109375,22.096875 2.878125,22.096875 L21.1289063,22.096875 C21.3960938,22.096875 21.646875,21.9914063 21.8367188,21.8015625 C22.0265625,21.6117188 22.1320313,21.3609375 22.1320313,21.09375 L22.1320313,11.2382812 L11.8148438,17.5710938 Z" id="Path" fill="#A0E8EA"></path>
                <path d="M13.3359375,16.6382812 L21.6492188,21.946875 C21.7148438,21.9070312 21.778125,21.8578125 21.834375,21.7992188 C22.0242188,21.609375 22.1296875,21.3585938 22.1296875,21.0914062 L22.1296875,11.2382812 L13.3359375,16.6382812 Z" id="Path" fill-opacity="0.5" fill="#0FB1B5"></path>
                <path d="M2.11875,10.3921875 C1.96171875,10.575 1.875,10.8023438 1.875,11.04375 L1.875,21.09375 C1.875,21.3609375 1.98046875,21.6117188 2.1703125,21.8015625 C2.203125,21.834375 2.23828125,21.8648438 2.2734375,21.8929688 L10.4554688,16.5679688 L2.11875,10.3921875 Z" id="Path" fill="#FFFFFF"></path>
                <path d="M11.7726563,17.859375 C11.7328125,17.859375 11.6953125,17.8476562 11.6601563,17.821875 L1.81640625,10.5328125 C1.73203125,10.471875 1.715625,10.3546875 1.7765625,10.2703125 C1.8375,10.1859375 1.9546875,10.1695312 2.0390625,10.2304687 L11.8828125,17.5195312 C11.9671875,17.5804687 11.9835938,17.6976562 11.9226562,17.7820312 C11.8875,17.83125 11.8289063,17.859375 11.7726563,17.859375 Z" id="Path" fill="#0FB1B5"></path>
                <path d="M11.784375,17.859375 C11.7210937,17.859375 11.6601562,17.8289062 11.625,17.7703125 C11.5710937,17.68125 11.59698,17.5664062 11.6859375,17.5125 L22.2117188,10.95 C22.3007812,10.8960937 22.415625,10.921875 22.4695313,11.0109375 C22.5234375,11.0976562 22.4975513,11.2148437 22.4085938,11.26875 L11.8828125,17.83125 C11.8523437,17.85 11.8171875,17.859375 11.784375,17.859375 Z M2.19140625,22.134375 C2.13046875,22.134375 2.06953125,22.1039063 2.034375,22.05 C1.978125,21.9632813 2.0015625,21.8460938 2.08828125,21.7898438 L10.1578125,16.5375 C10.2445312,16.48125 10.3617187,16.5046875 10.4179687,16.5914062 C10.4742187,16.678125 10.4507812,16.7953125 10.3640625,16.8515625 L2.2921875,22.1039063 C2.26171875,22.125 2.2265625,22.134375 2.19140625,22.134375 Z" id="Shape" fill="#0FB1B5"></path>
                <path d="M21.6492187,22.134375 C21.6140625,22.134375 21.5789062,22.125 21.5484375,22.1039062 L13.2867187,16.828125 C13.2,16.771875 13.1742187,16.6570312 13.2304687,16.5703125 C13.2867187,16.4835937 13.4015625,16.4578125 13.4882812,16.5140625 L21.75,21.7898437 C21.8367187,21.8460937 21.8625,21.9609375 21.80625,22.0476562 C21.7710937,22.1039062 21.7101562,22.134375 21.6492187,22.134375 L21.6492187,22.134375 Z M2.240625,15.9773437 L2.240625,15.5578125 C2.240625,15.50625 2.2828125,15.4640625 2.334375,15.4640625 L2.75390625,15.4640625 C2.80546875,15.4640625 2.84765625,15.50625 2.84765625,15.5578125 L2.84765625,15.9773437 C2.84765625,16.0289062 2.80546875,16.0710937 2.75390625,16.0710937 L2.334375,16.0710937 C2.2828125,16.0710937 2.240625,16.0289062 2.240625,15.9773437 Z M2.240625,15.0257812 L2.240625,14.60625 C2.240625,14.5546875 2.2828125,14.5125 2.334375,14.5125 L2.75390625,14.5125 C2.80546875,14.5125 2.84765625,14.5546875 2.84765625,14.60625 L2.84765625,15.0257812 C2.84765625,15.0773437 2.80546875,15.1195312 2.75390625,15.1195312 L2.334375,15.1195312 C2.2828125,15.1195312 2.240625,15.0773437 2.240625,15.0257812 Z M2.240625,16.9289062 L2.240625,16.509375 C2.240625,16.4578125 2.2828125,16.415625 2.334375,16.415625 L2.75390625,16.415625 C2.80546875,16.415625 2.84765625,16.4578125 2.84765625,16.509375 L2.84765625,16.9289062 C2.84765625,16.9804687 2.80546875,17.0226562 2.75390625,17.0226562 L2.334375,17.0226562 C2.2828125,17.0226562 2.240625,16.9804687 2.240625,16.9289062 Z M2.240625,17.8804687 L2.240625,17.4609375 C2.240625,17.409375 2.2828125,17.3671875 2.334375,17.3671875 L2.75390625,17.3671875 C2.80546875,17.3671875 2.84765625,17.409375 2.84765625,17.4609375 L2.84765625,17.8804687 C2.84765625,17.9320312 2.80546875,17.9742187 2.75390625,17.9742187 L2.334375,17.9742187 C2.2828125,17.9742187 2.240625,17.9320312 2.240625,17.8804687 Z M21.2296875,15.9773437 L21.2296875,15.5578125 C21.2296875,15.50625 21.271875,15.4640625 21.3234375,15.4640625 L21.7429687,15.4640625 C21.7945313,15.4640625 21.8367187,15.50625 21.8367187,15.5578125 L21.8367187,15.9773437 C21.8367187,16.0289062 21.7945313,16.0710937 21.7429687,16.0710937 L21.3234375,16.0710937 C21.271875,16.0710937 21.2296875,16.0289062 21.2296875,15.9773437 Z M21.2296875,15.0257812 L21.2296875,14.60625 C21.2296875,14.5546875 21.271875,14.5125 21.3234375,14.5125 L21.7429687,14.5125 C21.7945313,14.5125 21.8367187,14.5546875 21.8367187,14.60625 L21.8367187,15.0257812 C21.8367187,15.0773437 21.7945313,15.1195312 21.7429687,15.1195312 L21.3234375,15.1195312 C21.271875,15.1195312 21.2296875,15.0773437 21.2296875,15.0257812 Z M21.2296875,16.9289062 L21.2296875,16.509375 C21.2296875,16.4578125 21.271875,16.415625 21.3234375,16.415625 L21.7429687,16.415625 C21.7945313,16.415625 21.8367187,16.4578125 21.8367187,16.509375 L21.8367187,16.9289062 C21.8367187,16.9804687 21.7945313,17.0226562 21.7429687,17.0226562 L21.3234375,17.0226562 C21.271875,17.0226562 21.2296875,16.9804687 21.2296875,16.9289062 Z M21.2296875,17.8804687 L21.2296875,17.4609375 C21.2296875,17.409375 21.271875,17.3671875 21.3234375,17.3671875 L21.7429687,17.3671875 C21.7945313,17.3671875 21.8367187,17.409375 21.8367187,17.4609375 L21.8367187,17.8804687 C21.8367187,17.9320312 21.7945313,17.9742187 21.7429687,17.9742187 L21.3234375,17.9742187 C21.271875,17.9742187 21.2296875,17.9320312 21.2296875,17.8804687 Z" id="Shape" fill="#0FB1B5"></path>
            </g>
        </g>
    </g>
</svg>