<?xml version="1.0" encoding="UTF-8"?>
<svg width="24px" height="24px" viewBox="0 0 24 24" version="1.1" xmlns="http://www.w3.org/2000/svg" xmlns:xlink="http://www.w3.org/1999/xlink">
    <!-- Generator: Sketch 60 (88103) - https://sketch.com -->
    <title>icon/试卷名称图标</title>
    <desc>Created with Sketch.</desc>
    <g id="Slice" stroke="none" stroke-width="1" fill="none" fill-rule="evenodd">
        <g id="icon/试卷名称图标" fill-rule="nonzero">
            <g id="学校_科目">
                <rect id="Rectangle" fill="#000000" opacity="0" x="0" y="0" width="24" height="24"></rect>
                <path d="M19.8,1.188 L4.2,1.188 C3.348,1.188 2.664,1.872 2.664,2.724 L2.664,21.288 C2.664,22.14 3.348,22.824 4.2,22.824 L19.8,22.824 C20.652,22.824 21.336,22.14 21.336,21.288 L21.336,2.724 C21.336,1.872 20.652,1.188 19.8,1.188 Z M11.808,2.868 L11.808,10.692 L9.84,9.48 C9.72,9.408 9.588,9.372 9.456,9.372 C9.324,9.372 9.192,9.408 9.072,9.48 L7.128,10.692 L7.128,2.868 L11.808,2.868 L11.808,2.868 Z M4.2,2.628 L5.688,2.628 L5.688,11.988 C5.688,12.252 5.832,12.492 6.06,12.612 C6.288,12.744 6.564,12.732 6.792,12.6 L9.468,10.944 L12.144,12.6 C12.264,12.672 12.396,12.708 12.528,12.708 C12.648,12.708 12.768,12.672 12.876,12.612 C13.104,12.48 13.248,12.24 13.248,11.988 L13.248,2.628 L19.8,2.628 C19.848,2.628 19.896,2.676 19.896,2.724 L19.896,17.712 L4.104,17.712 L4.104,2.724 C4.104,2.664 4.152,2.628 4.2,2.628 Z M19.8,21.372 L4.2,21.372 C4.152,21.372 4.104,21.324 4.104,21.276 L4.104,19.14 L19.896,19.14 L19.896,21.276 C19.896,21.336 19.848,21.372 19.8,21.372 Z" id="Shape" fill="#0FB1B5"></path>
            </g>
        </g>
    </g>
</svg>