<?xml version="1.0" encoding="UTF-8"?>
<svg width="16px" height="16px" viewBox="0 0 16 16" version="1.1" xmlns="http://www.w3.org/2000/svg" xmlns:xlink="http://www.w3.org/1999/xlink">
    <!-- Generator: Sketch 60 (88103) - https://sketch.com -->
    <title>icon/news</title>
    <desc>Created with Sketch.</desc>
    <g id="Slice" stroke="none" stroke-width="1" fill="none" fill-rule="evenodd" opacity="0.648949033">
        <g id="icon/news">
            <g>
                <rect id="Rectangle" x="0" y="0" width="16" height="16"></rect>
                <g id="news" transform="translate(1.500000, 0.500000)" fill="#000000" fill-rule="nonzero">
                    <path d="M6.6770428,14.9861512 C4.83272892,14.9861512 3.14537613,13.4495214 3.14537613,11.7552935 L4.04791167,11.7552935 C4.04791167,12.8191151 5.18589053,14.0799379 6.677031,14.0799379 C7.97197263,14.0799379 9.30615032,12.8979142 9.30615032,11.7552935 L10.2086859,11.7552935 C10.2086859,13.410127 8.48209702,14.9861512 6.6770192,14.9861512 L6.6770428,14.9861512 Z M6.52008019,0.0138487585 C6.75552351,0.0138487585 6.99096852,0.210853273 6.99096852,0.486658578 L6.99096852,1.43227652 C6.99096852,1.70808183 6.79476463,1.90508634 6.52008019,1.90508634 C6.24539576,1.90508634 6.04919187,1.70808183 6.04919187,1.43227652 L6.04919187,0.486658578 C6.04919187,0.210853273 6.28463519,0.0138487585 6.52008019,0.0138487585 Z" id="Shape"></path>
                    <path d="M6.48084565,0.801873589 C3.42007912,0.801873589 1.6150013,2.92952032 1.6150013,5.68757336 C1.6150013,7.97282167 1.18335409,8.76082957 0.90866965,9.23365124 C0.477022438,9.98226637 0.00613411154,10.533877 0.00613411154,11.2036964 C0.00613411154,12.2281168 0.437781323,12.6221242 1.45803852,12.6221242 L11.5428855,12.6221242 C12.5631427,12.6221242 12.9947899,12.2281168 12.9947899,11.2036964 C12.9947899,10.5338837 12.6416232,10.1398747 12.0922543,9.23365124 C11.8175699,8.76084142 11.3859227,8.0122263 11.3859227,5.68757336 C11.3466821,2.92952032 9.54160882,0.801873589 6.48084228,0.801873589 M6.48084228,1.74749153 C8.8745284,1.74749153 10.4049032,3.28412133 10.4049032,5.72697799 C10.4049032,8.05162246 10.7973093,9.03664503 11.2681977,9.74586061 C11.3859197,9.94286512 11.503641,10.1398679 11.6213643,10.2974712 C11.974531,10.8490818 12.0530115,11.0066851 12.0530115,11.2430892 C12.0530115,11.5582957 11.9745303,11.6764977 11.9745302,11.6764977 C11.9745301,11.6764977 11.8568082,11.7552994 11.5428829,11.7552994 L1.45803599,11.7552994 C1.10486933,11.7552994 1.02638878,11.6764979 1.02638878,11.6764977 C1.02638878,11.6764977 0.947907393,11.5976963 0.947907393,11.2430892 C0.947907393,10.9672839 1.18335071,10.6126761 1.45803515,10.1398679 C1.53651654,10.0216656 1.61499776,9.90346388 1.69347847,9.74586061 C2.12512568,9.03664673 2.55677289,8.05162246 2.55677289,5.72697799 C2.55677289,3.2841281 4.08715785,1.74749153 6.48083385,1.74749153" id="Shape"></path>
                </g>
            </g>
        </g>
    </g>
</svg>