<?xml version="1.0" encoding="UTF-8"?>
<svg width="10px" height="10px" viewBox="0 0 10 10" version="1.1" xmlns="http://www.w3.org/2000/svg" xmlns:xlink="http://www.w3.org/1999/xlink">
    <!-- Generator: Sketch 60 (88103) - https://sketch.com -->
    <title>icon/提示</title>
    <desc>Created with Sketch.</desc>
    <g id="Slice" stroke="none" stroke-width="1" fill="none" fill-rule="evenodd">
        <g id="icon/提示" fill="#0FB1B5">
            <path d="M5,10 C2.23828125,10 0,7.76171875 0,5 C0,2.23828125 2.23828125,0 5,0 C7.76171875,0 10,2.23828125 10,5 C10,7.76171875 7.76171875,10 5,10 L5,10 Z M5.5,8 C5.7765625,8 6,7.7765625 6,7.5 C6,7.2234375 5.7765625,7 5.5,7 C5.2234375,7 5,7.2234375 5,7.5 C5,7.7765625 5.2234375,8 5.5,8 L5.5,8 Z M6.61478599,2 L5.85603113,2 L5.10894942,2 L4.38521401,2 C4.17859922,2 4.01167315,2.12697003 4.01167315,2.28412875 C4.01167315,2.44128746 4.17859922,2.56825749 4.38521401,2.56825749 L5.10894942,2.56825749 L5.10894942,5.43174251 L4.37354086,5.43174251 C4.16692607,5.43174251 4,5.55871254 4,5.71587125 C4,5.87302997 4.16692607,6 4.37354086,6 L5.10894942,6 L5.48249027,6 C5.68910506,6 5.85603113,5.87302997 5.85603113,5.71587125 L5.85603113,2.56825749 L6.61478599,2.56825749 C6.82140078,2.56825749 7,2.44128746 7,2.28412875 C7,2.12697003 6.82140078,2 6.61478599,2 L6.61478599,2 Z" id="Shape" transform="translate(5.000000, 5.000000) scale(1, -1) translate(-5.000000, -5.000000) "></path>
        </g>
    </g>
</svg>