<?xml version="1.0" encoding="UTF-8"?>
<svg width="14px" height="14px" viewBox="0 0 14 14" version="1.1" xmlns="http://www.w3.org/2000/svg" xmlns:xlink="http://www.w3.org/1999/xlink">
    <!-- Generator: Sketch 60 (88103) - https://sketch.com -->
    <title>icon/提示成功</title>
    <desc>Created with Sketch.</desc>
    <g id="Slice" stroke="none" stroke-width="1" fill="none" fill-rule="evenodd">
        <g id="icon/提示成功" fill="#52C41A">
            <g id="Message/_Icon/Success">
                <path d="M7,0 C3.1339104,0 0,3.1339104 0,7 C0,10.8660896 3.1339104,14 7,14 C10.8660896,14 14,10.8660896 14,7 C14,3.1339104 10.8660896,0 7,0 L7,0 Z M11.8677819,4.70042169 L6.00926702,9.87989751 C5.83297618,10.0400342 5.54671511,10.0400342 5.37042427,9.87989751 L3.13221813,7.93649514 C2.95592729,7.77635849 2.95592729,7.51626455 3.13221813,7.3561279 C3.30850897,7.19599125 3.59484055,7.19599125 3.7711314,7.3561279 L5.69056844,9.01003523 L11.2289215,4.12010249 C11.4052123,3.95996584 11.691491,3.95996584 11.8677819,4.12010249 C12.0440727,4.28023914 12.0440727,4.54028504 11.8677819,4.70042169 L11.8677819,4.70042169 Z" id="iconfont-checkcircle"></path>
            </g>
        </g>
    </g>
</svg>