<?xml version="1.0" encoding="UTF-8"?>
<svg width="16px" height="16px" viewBox="0 0 16 16" version="1.1" xmlns="http://www.w3.org/2000/svg" xmlns:xlink="http://www.w3.org/1999/xlink">
    <!-- Generator: Sketch 60 (88103) - https://sketch.com -->
    <title>icon/收起</title>
    <desc>Created with Sketch.</desc>
    <g id="Slice" stroke="none" stroke-width="1" fill="none" fill-rule="evenodd">
        <g id="icon/收起" fill-rule="nonzero">
            <g id="Group-12" transform="translate(8.000000, 8.000000) scale(1, -1) translate(-8.000000, -8.000000) ">
                <rect id="Rectangle" fill="#000000" opacity="0" x="0" y="0" width="16" height="16"></rect>
                <path d="M12.6222222,7.68888889 L8.04444444,12.2666667 L3.46666667,7.68888889 C3.37777778,7.6 3.28888889,7.55555556 3.15555556,7.55555556 C3.02222223,7.55555556 2.93333334,7.6 2.84444444,7.68888889 C2.66666666,7.86666667 2.66666666,8.13333333 2.84444444,8.31111111 L8.04444444,13.5111111 L13.2444444,8.31111111 C13.3777778,8.13333333 13.3777778,7.91111111 13.2444444,7.73333333 C13.0666667,7.55555556 12.8,7.51111111 12.6222222,7.68888889 L12.6222222,7.68888889 Z M8.04444444,8.62222222 L13.2444444,3.42222222 C13.3777778,3.24444444 13.3777778,3.02222222 13.2444444,2.84444444 C13.0666667,2.66666667 12.8,2.62222222 12.6222222,2.8 L8.04444444,7.37777778 L3.46666667,2.8 C3.37777778,2.71111111 3.28888889,2.66666667 3.15555556,2.66666667 C3.02222223,2.66666667 2.93333334,2.71111111 2.84444444,2.8 C2.66666666,2.97777778 2.66666666,3.24444444 2.84444444,3.42222222 L8.04444444,8.62222222 Z" id="Shape" fill="#0FB1B5"></path>
            </g>
        </g>
    </g>
</svg>