<?xml version="1.0" encoding="UTF-8"?>
<svg width="24px" height="24px" viewBox="0 0 24 24" version="1.1" xmlns="http://www.w3.org/2000/svg" xmlns:xlink="http://www.w3.org/1999/xlink">
    <!-- Generator: Sketch 60 (88103) - https://sketch.com -->
    <title>icon/成绩</title>
    <desc>Created with Sketch.</desc>
    <g id="Slice" stroke="none" stroke-width="1" fill="none" fill-rule="evenodd">
        <g id="icon/成绩" fill-rule="nonzero">
            <g id="奖杯--胜利">
                <rect id="Rectangle" fill="#000000" opacity="0" x="0" y="0" width="24" height="24"></rect>
                <path d="M13.938,7.8372 L12.756,7.6656 L12.228,6.6 C12.1767818,6.49508873 12.0699437,6.4288398 11.9532,6.42959353 C11.8364563,6.4288398 11.7296182,6.49508873 11.6784,6.6 L11.1504,7.6704 L9.9684,7.842 C9.85265474,7.85851036 9.75643392,7.93953181 9.72045811,8.05077613 C9.68448231,8.16202045 9.71504032,8.28404148 9.7992,8.3652 L10.6536,9.198 L10.452,10.3704 C10.4331762,10.4849836 10.4805693,10.600389 10.5744903,10.6686721 C10.6684113,10.7369552 10.7928076,10.7464454 10.896,10.6932 L11.9532,10.1376 L13.0092,10.6932 C13.0538531,10.7158066 13.1031512,10.7277203 13.1532,10.7280011 C13.2175781,10.7281736 13.2802907,10.70755 13.332,10.6692 C13.4261101,10.6009467 13.4727609,10.4847863 13.452,10.3704 L13.2504,9.1932 L14.1048,8.3604 C14.1889597,8.27924148 14.2195177,8.15722045 14.1835419,8.04597613 C14.1475661,7.93473181 14.0513453,7.85371036 13.9356,7.8372 L13.938,7.8372 Z" id="Path" fill="#0FB1B5"></path>
                <path d="M19.6668,5.1516 L19.4028,5.1516 L19.4028,4.9908 C19.4028,3.79786494 18.4357351,2.8308 17.2428,2.8308 L6.6624,2.8308 C5.46946494,2.8308 4.5024,3.79786494 4.5024,4.9908 L4.5024,5.1516 L4.2396,5.1516 C3.04666494,5.1516 2.0796,6.11866494 2.0796,7.3116 L2.0796,8.5116 C2.09138304,10.1893955 3.1005947,11.6992025 4.6464,12.3516 C5.29309831,15.5702886 7.96610542,17.9890946 11.2332,18.312 L11.2332,20.232 L9.0336,20.232 C8.635955,20.232 8.31360004,20.554355 8.31360004,20.952 C8.31360004,21.349645 8.635955,21.672 9.0336,21.672 L14.8728,21.672 C15.270445,21.672 15.5928,21.349645 15.5928,20.952 C15.5928,20.554355 15.270445,20.232 14.8728,20.232 L12.6732,20.232 L12.6732,18.312 C15.9402946,17.9890946 18.6133017,15.5702886 19.26,12.3516 C20.8058053,11.6992025 21.815017,10.1893955 21.8268,8.5116 L21.8268,7.3116 C21.8268,6.11866494 20.8597351,5.1516 19.6668,5.1516 Z M3.5196,8.5116 L3.5196,7.3116 C3.5196,6.91395498 3.84195498,6.5916 4.2396,6.5916 L4.5024,6.5916 L4.5024,10.596 C3.88456162,10.0792673 3.5251614,9.31702288 3.5196,8.5116 L3.5196,8.5116 Z M11.9532,16.9116 C8.63349334,16.9082898 5.94372253,14.216908 5.9424,10.8972 L5.9424,4.9908 C5.9424,4.59315498 6.26475498,4.2708 6.6624,4.2708 L17.2428,4.2708 C17.640445,4.2708 17.9628,4.59315498 17.9628,4.9908 L17.9628,10.8972 C17.9588326,14.2145657 15.2705657,16.9028326 11.9532,16.9068 L11.9532,16.9116 Z M20.3868,8.5116 C20.3814307,9.31732962 20.0214837,10.0798028 19.4028,10.596 L19.4028,6.5916 L19.6668,6.5916 C19.8577559,6.5916 20.0408907,6.66745693 20.1759169,6.80248312 C20.3109431,6.93750931 20.3868,7.12064413 20.3868,7.3116 L20.3868,8.5116 Z" id="Shape" fill="#0FB1B5"></path>
            </g>
        </g>
    </g>
</svg>