<?xml version="1.0" encoding="UTF-8"?>
<svg width="24px" height="24px" viewBox="0 0 24 24" version="1.1" xmlns="http://www.w3.org/2000/svg" xmlns:xlink="http://www.w3.org/1999/xlink">
    <!-- Generator: Sketch 60 (88103) - https://sketch.com -->
    <title>icon/显示答案解析</title>
    <desc>Created with Sketch.</desc>
    <g id="Slice" stroke="none" stroke-width="1" fill="none" fill-rule="evenodd" opacity="0.85">
        <g id="icon/显示答案解析" fill="#0FB1B5" fill-rule="nonzero">
            <g id="答案解析—解析-copy" transform="translate(4.000000, 2.000000)">
                <path d="M1.21890739,19.9977756 C-0.0424030506,19.8970481 -0.00157659607,18.7577071 0.000572562284,18.7084627 L0.000572562284,3.45159949 C0.000572562284,2.24062978 0.986843616,2.18019324 1.18452841,2.18019324 L2.47162309,2.17347807 L2.47162309,3.30386572 L1.5863436,3.30386572 C1.45527062,3.29715056 1.32634643,3.34863362 1.23394961,3.44712276 C1.13940515,3.56575741 1.09213292,3.71572896 1.10287664,3.87017857 L1.10287664,18.3928519 C1.09643043,18.5361089 1.13725637,18.6547436 1.22105731,18.7420401 C1.31130439,18.8293373 1.42948412,18.8785819 1.55196348,18.8785819 L14.4529947,18.8785819 C14.5690266,18.8830587 14.6807602,18.8360524 14.7624131,18.7509937 C14.8999324,18.5987831 14.8848911,18.3771822 14.8848911,18.3503222 L14.8848911,3.8007751 C14.8913373,3.67766358 14.8462138,3.5567901 14.7645617,3.4672547 C14.6506786,3.36205026 14.5045645,3.30832901 14.3541517,3.31280569 L14.3133257,3.31504408 L13.5462253,3.31504408 L13.5462253,2.16674975 L14.7581146,2.16674975 C15.1878631,2.19361037 15.5187674,2.33462897 15.7293453,2.58756673 C15.9141368,2.82259839 16.0108303,3.11806462 15.9979372,3.42248617 L15.9979372,18.7397859 C16.0151271,19.1292652 15.9248802,19.4292111 15.7271961,19.6396196 C15.4134795,19.9753788 14.9214185,20 14.7774532,20 L1.21890796,19.9977616 L1.21890739,19.9977756 Z M4.27871967,17.2176946 C4.15839022,17.2176946 4.06169622,17.116967 4.05954895,16.9916163 L4.05954895,16.3245755 C4.06169769,16.1992255 4.15839097,16.0984972 4.27871967,16.0984972 L11.7047605,16.0984972 C11.82509,16.0984972 11.9239313,16.1992247 11.9239313,16.3245755 L11.9239313,16.9916163 C11.9217825,17.1169662 11.8250892,17.2176946 11.7047605,17.2176946 L4.27871967,17.2176946 Z M4.27871967,14.4264194 C4.15839022,14.4264194 4.06169622,14.3256919 4.05954895,14.20258 L4.05954895,13.5333003 C4.06169769,13.4079504 4.15839097,13.307222 4.27871967,13.307222 L11.7047605,13.307222 C11.82509,13.307222 11.9239313,13.4079496 11.9239313,13.5333003 L11.9239313,14.20258 C11.9217825,14.3279299 11.8250892,14.4264194 11.7047605,14.4264194 L4.27871967,14.4264194 Z M11.0558394,11.6664839 C10.9978234,11.6664839 10.9398075,11.6441 10.8989814,11.6015705 C10.8581553,11.5590411 10.8345193,11.500843 10.8345193,11.438168 L10.8345193,5.19754396 C10.8345193,5.13710742 10.8581555,5.07890931 10.9011302,5.03637984 C10.9419563,4.99385038 10.9999722,4.96922819 11.0579881,4.97146643 L11.7112039,4.97146643 C11.7692198,4.97146643 11.825087,4.99608881 11.8680618,5.03861808 C11.9088879,5.08114754 11.9325239,5.13934565 11.9325239,5.1997822 L11.9325239,11.4404062 C11.9325239,11.5008428 11.9088877,11.5590409 11.8680618,11.6015703 C11.8272357,11.6440998 11.7713686,11.668722 11.7133526,11.6664837 L11.0558386,11.6664837 L11.0558394,11.6664839 Z M7.66083015,11.6664839 C7.60281421,11.6664839 7.54694704,11.6418616 7.50397218,11.5993323 C7.46314611,11.5568028 7.43951009,11.4986047 7.43951009,11.4381682 L7.43951009,5.19754416 C7.43951009,5.13710761 7.4631463,5.0789095 7.50397218,5.03638004 C7.54479826,4.99385058 7.60066542,4.96922839 7.65868137,4.97146663 L8.31189709,4.97146663 C8.36991303,4.97146663 8.42792898,4.99385058 8.46875505,5.03638004 C8.50958113,5.0789095 8.53321715,5.13710761 8.53321715,5.19978259 L8.53321715,11.4404066 C8.53321715,11.5008432 8.50958094,11.5590413 8.46660627,11.6015707 C8.4257802,11.6441002 8.36776425,11.6687224 8.30974831,11.6664841 L7.66082902,11.6664841 L7.66083015,11.6664839 Z M4.27656673,11.6664839 C4.21855079,11.6664839 4.16268362,11.6418616 4.11970876,11.5993323 C4.07888269,11.5568028 4.05524667,11.4986047 4.05524667,11.4381682 L4.05524667,5.19754416 C4.05524667,5.13710761 4.07888288,5.0789095 4.11970876,5.03638004 C4.16053484,4.99385058 4.21640201,4.96922839 4.27441795,4.97146663 L4.92763367,4.97146663 C4.98564961,4.97146663 5.04366556,4.99385058 5.08449163,5.03638004 C5.12531771,5.0789095 5.14895373,5.13710761 5.14895373,5.19978259 L5.14895373,11.4404066 C5.14895373,11.5008432 5.12531752,11.5590413 5.08234285,11.6015707 C5.04151678,11.6441002 4.98350083,11.6687224 4.92548489,11.6664841 L4.2765656,11.6664841 L4.27656673,11.6664839 Z M4.0530977,3.29938675 L4.0530977,2.16452341 L5.5206858,2.16452341 L7.11075326,0.342473749 C7.11075326,0.342473749 7.43521196,0 7.91008342,0 C7.92942206,0 7.94876071,0 7.96809936,0.00223839489 L8.01752037,0.00223839489 C8.11851117,0.00223839489 8.47520234,0.026860778 8.84478392,0.360380003 L10.4627848,2.16676181 L11.9303729,2.16676181 L11.9303729,3.30162514 L4.0530977,3.30162514 L4.0530977,3.29938675 L4.0530977,3.29938675 Z M7.98314914,0.646886837 C7.90364576,0.646886837 7.78546434,0.675986482 7.67373077,0.819243519 L6.55208917,2.16675417 L9.38197172,2.16675417 L8.29900743,0.80581252 C8.21950405,0.709561815 8.10562094,0.653601943 7.98314347,0.646886837 L7.98314914,0.646886837 Z" id="Shape"></path>
            </g>
        </g>
    </g>
</svg>