<?xml version="1.0" encoding="UTF-8"?>
<svg width="24px" height="24px" viewBox="0 0 24 24" version="1.1" xmlns="http://www.w3.org/2000/svg" xmlns:xlink="http://www.w3.org/1999/xlink">
    <!-- Generator: Sketch 60 (88103) - https://sketch.com -->
    <title>icon/学生名称图标 </title>
    <desc>Created with Sketch.</desc>
    <g id="Slice" stroke="none" stroke-width="1" fill="none" fill-rule="evenodd">
        <g id="icon/学生名称图标-">
            <g id="业务图标_学生查询">
                <rect id="Rectangle" fill="#000000" fill-rule="nonzero" opacity="0" x="0" y="0" width="24" height="24"></rect>
                <g id="Group-12" transform="translate(2.900000, 0.500000)">
                    <path d="M9.02761859,0.117738247 C8.84056644,-0.0392460824 8.56779574,-0.0392460824 8.38074359,0.117738247 L0.28761859,4.44461325 C0.103315519,4.59663387 -0.00236236617,4.82384133 5.89645362e-05,5.06273825 C0.0145987899,5.33688097 0.158718902,5.58775672 0.38824359,5.73836325 L3.57949359,7.80836325 C3.62723241,7.85637685 3.68670098,7.89106685 3.75199359,7.90898825 L3.98199359,7.90898825 L3.88136859,8.12461325 C3.56295935,8.85487111 3.39666107,9.64234237 3.39261859,10.4389882 C3.36077131,11.911213 3.93258782,13.3323801 4.9752082,14.3722853 C6.01782857,15.4121905 7.44048184,15.9802993 8.91261859,15.9446132 C9.67300068,15.9475895 10.4244374,15.7806035 11.1119936,15.4558632 L11.2844936,15.4558632 C13.9313038,16.3736181 15.844636,18.6918003 16.2438686,21.4646132 L16.2438686,21.7089882 L1.48074359,21.7089882 L1.48074359,21.4646132 C1.75276931,19.3798768 2.88368965,17.5036956 4.60011859,16.2896132 C4.91285391,16.0667721 5.00064294,15.6403682 4.80136859,15.3121132 C4.710051,15.1590562 4.54814187,15.0619108 4.37011859,15.0533632 C4.17772979,15.0387348 3.98478607,15.0733658 3.80949359,15.1539882 C1.41868897,16.7629746 -0.0105786161,19.4597059 5.89645362e-05,22.3414882 L5.89645362e-05,22.9883632 L17.5376186,22.9883632 L17.5376186,22.3414882 C17.5256017,19.0880453 15.7247392,16.1050214 12.8513686,14.5789882 L12.5926186,14.4496132 L12.7938686,14.2483632 C13.7780893,13.1893661 14.327262,11.7984709 14.3319936,10.3527382 C14.3330682,9.54940669 14.1614859,8.75522589 13.8288686,8.02398825 L13.7426186,7.85148825 L17.0344936,5.73836325 C17.2125607,5.5816001 17.3168298,5.35742158 17.3219936,5.12023825 C17.3189027,4.87941243 17.2081445,4.65262194 17.0201186,4.50211325 L9.02761859,0.117738247 Z M8.91261859,14.6652382 C6.62554731,14.6420315 4.77497528,12.7978407 4.74386859,10.5108632 C4.77481062,8.22146528 6.62322063,6.37305528 8.91261859,6.34211325 C11.1161081,6.4716742 12.8366767,8.29638059 12.8366767,10.5036757 C12.8366767,12.7109709 11.1161081,14.5356773 8.91261859,14.6652382 L8.91261859,14.6652382 Z M12.9807436,6.71586325 L12.8657436,6.58648825 C11.8301547,5.51367951 10.4037115,4.90679276 8.91261859,4.90461325 C7.33664276,4.89025462 5.83373661,5.56813886 4.80136859,6.75898825 L4.60011859,6.94586325 L4.42761859,6.75898825 C4.40574035,6.7189105 4.36994592,6.68822956 4.32699359,6.67273825 L2.07011859,5.23523825 L8.91261859,1.69898825 L15.4676186,5.22086325 L12.9807436,6.71586325 Z" id="Shape" fill="#0FB1B5" fill-rule="nonzero"></path>
                    <path d="M16.7038686,4.30086325 C16.3687367,4.32112731 16.0993305,4.58441068 16.0713686,4.91898825 L16.0713686,10.9277382 L15.9994936,10.9277382 C15.7497152,11.1192855 15.6056822,11.4180205 15.6113686,11.7327382 C15.5632323,12.1503074 15.7589278,12.5584616 16.1146435,12.782398 C16.4703591,13.0063344 16.9230031,13.0063344 17.2787187,12.782398 C17.6344344,12.5584616 17.8301299,12.1503074 17.7819936,11.7327382 C17.78768,11.4180205 17.643647,11.1192855 17.3938686,10.9277382 L17.3219936,10.9277382 L17.3219936,4.94773825 C17.3086994,4.60703007 17.043621,4.32962249 16.7038686,4.30086325 L16.7038686,4.30086325 Z" id="Path" fill="#0FB1B5" fill-rule="nonzero"></path>
                    <path d="M3.19136859,16.5547085 C3.60264946,16.2073055 4.62886859,15.2795238 6.06636859,14.6380418" id="Path-2" stroke="#0FB1B5" stroke-width="1.41" stroke-linecap="round" stroke-linejoin="round"></path>
                </g>
            </g>
        </g>
    </g>
</svg>