<?xml version="1.0" encoding="UTF-8"?>
<svg width="16px" height="16px" viewBox="0 0 16 16" version="1.1" xmlns="http://www.w3.org/2000/svg" xmlns:xlink="http://www.w3.org/1999/xlink">
    <!-- Generator: Sketch 60 (88103) - https://sketch.com -->
    <title>icon/view</title>
    <desc>Created with Sketch.</desc>
    <g id="Slice" stroke="none" stroke-width="1" fill="none" fill-rule="evenodd">
        <g id="icon/view" fill-rule="nonzero">
            <g id="查看-copy-2">
                <rect id="Rectangle" fill="#000000" opacity="0" x="0" y="0" width="16" height="16"></rect>
                <path d="M14.9375,9.76175 C13.24425,12.05075 10.7665,13.498 8,13.498 C5.23375,13.498 2.756,12.05075 1.0625,9.76175 C0.31475,8.75125 0.31475,7.24925 1.0625,6.2385 C2.756,3.9495 5.23375,2.50225 8,2.50225 C10.7665,2.50225 13.24425,3.9495 14.9375,6.2385 C15.68525,7.24925 15.68525,8.75125 14.9375,9.76175 Z M14.1855,7.0685 C12.61475,4.802 10.354,3.50225 7.983,3.50225 C5.612,3.50225 3.35125,4.802 1.7805,7.0685 C1.40625,7.6085 1.40625,8.39225 1.7805,8.93225 C3.35125,11.19875 5.612,12.49875 7.983,12.49875 C10.354,12.49875 12.61475,11.19875 14.1855,8.932 C14.55975,8.39225 14.55975,7.6085 14.1855,7.0685 Z M8.005,11.49725 C6.072,11.49725 4.505,9.93025 4.505,7.99725 C4.505,6.06425 6.072,4.49725 8.005,4.49725 C9.938,4.49725 11.505,6.06425 11.505,7.99725 C11.505,9.93025 9.938,11.49725 8.005,11.49725 Z M8.005,5.49725 C6.62425,5.49725 5.505,6.6165 5.505,7.99725 C5.505,9.378 6.62425,10.49725 8.005,10.49725 C9.38575,10.49725 10.505,9.378 10.505,7.99725 C10.505,6.6165 9.38575,5.49725 8.005,5.49725 Z" id="Shape" fill="#0FB1B5"></path>
            </g>
        </g>
    </g>
</svg>